<?xml version="1.0" standalone="no"?>
<!DOCTYPE svg PUBLIC "-//W3C//DTD SVG 1.1//EN" "http://www.w3.org/Graphics/SVG/1.1/DTD/svg11.dtd" >
<svg xmlns="http://www.w3.org/2000/svg">
<metadata></metadata>
<defs>
<font id="burned_gothicroman" horiz-adv-x="1024" >
<font-face units-per-em="2048" ascent="1638" descent="-410" />
<missing-glyph horiz-adv-x="569" />
<glyph horiz-adv-x="2048" />
<glyph horiz-adv-x="2048" />
<glyph unicode="&#xd;" horiz-adv-x="569" />
<glyph unicode=" "  horiz-adv-x="569" />
<glyph unicode="&#x09;" horiz-adv-x="569" />
<glyph unicode="&#xa0;" horiz-adv-x="569" />
<glyph unicode="!" horiz-adv-x="569" d="M73 1454q6 -2 6 8q0 39 62 72q53 29 96 29q22 0 92 -37v-961q-29 -20 -90 -57h-39q-12 49 -57 78v839q-52 23 -60 25zM81 66v151q137 59 187 59q127 0 127 -122q0 -62 -48.5 -105t-109.5 -43q-29 0 -156 60z" />
<glyph unicode="&#x22;" horiz-adv-x="970" d="M47 1487q41 74 100 74q25 0 54 -33q22 -27 45 -53q-39 -95 -39 -248q0 -8 4 -129q2 -62 2 -131q-31 -6 -64 -6q-32 0 -65 6q2 -27 6 280q2 162 -43 240zM444 993v533l13 4q24 8 49 8q45 0 75.5 -27.5t30.5 -72.5q0 -60 -59 -156q59 -33 61 -39q0 -33 -9 -43t-42 -31 l102 -116l82 108l-206 -20l57 -51q14 -13 24 -19l146 -82l-193 273l31 -164q2 -29 -2 -51l-22 -121l43 -54l38 82h-188q-12 23 -31 39z" />
<glyph unicode="#" horiz-adv-x="1105" d="M102 580v71q74 29 197 37v193q-95 49 -146 71v52q21 12 35 28q221 39 256 252q2 25 12 135q6 80 27 131q20 -2 61 -14q-2 -49 -20 -211q-16 -143 0 -317q205 112 244 241q2 6 8 45l26 156q11 55 27 102h29q10 -24 10 -67q0 -45 -14.5 -133t-14.5 -133q0 -146 103 -211 v-31q-58 -16 -152 -14l-45 -41v-230q59 -26 96 -30v-60q-159 -53 -186 -156q-8 -34 -37 -239q-18 -129 -55 -201q-21 2 -68 14v111q0 10 -2 19q39 45 45 149q2 43 60 80l-35 164h-180q-23 -97 -62 -209l-59 -168q-13 -35 -10 -146l-17 -6q-10 -2 -16 -4q-19 92 -15 226 q45 18 45 65v231q-18 9 -147 48zM395 705q80 -23 125 -19l117 10v240h-173q-6 -29 -30 -98q-23 -45 -39 -133z" />
<glyph unicode="$" horiz-adv-x="864" d="M79 328l8 6q15 8 27 8q16 0 237 -84v547q-120 72 -176 135q-76 86 -76 201q0 94 41 145q37 45 199 156q10 33 14 67l2 7q15 12 21 20l6 8q10 -10 21 -33q4 -14 28 -71q168 -62 203 -105q12 -14 45 -53q-8 -10 -14 -18l-8 -9q-13 -12 -17 -12q-8 0 -53 23q-21 10 -119 28 q-8 -59 -16 -159q-2 -31 -60 -84q60 -54 56 -76q-2 -12 -9 -47q-6 -39 17 -86q47 -43 174 -137q43 -33 57 -72q10 -31 10 -92q0 -166 -157 -295q-15 -13 -129 -105q-10 -57 -10 -118q-9 32 -17 124q-61 29 -160 62q-61 20 -92 43q-8 6 -43 59q-4 8 -10 17zM218 942l103 35 q22 8 69 18v250q-45 12 -69 21l-103 37v-361zM362 559q0 -37 20 -131q25 -104 29 -141h141q72 82 72 205q0 51 -2 71q-8 80 -92 117q-27 12 -84 41l-45 -51q-39 -45 -39 -111z" />
<glyph unicode="%" horiz-adv-x="1146" d="M65 1174q0 122 74 217q80 104 198 104q37 0 177 -72q2 -2 26 -75l35 -103q125 113 164 168q51 72 110 146q9 -3 27 -11v-59q-102 -131 -233 -483q-125 -334 -232 -457l45 -246q47 72 144 215q30 29 107 56.5t120 27.5q69 0 117 -102q32 -72 32 -113q0 -92 -112 -209 q-123 -129 -254 -123q-60 56 -80 135q-8 66 -59 359q-142 -187 -173 -266q-47 -117 -51 -129q-35 -72 -82 -109v111q185 303 394 784l-13 21q-4 4 -14 51l-119 -97l43 -14q8 -14 21 -18q43 -15 135 -47l20 63l-110 27q2 26 -4 45q-9 26 -33 24q-27 -2 -92 -18 q-13 -2 -54 -25q-55 -28 -75 -28q-99 0 -152 77q-47 70 -47 173zM124 1065l56 -16q69 -21 151 -25q19 33 58 92q16 25 65 51v187l-55 14q-58 23 -152 25q-55 -84 -123 -115v-213zM538 172l55 -14q39 -11 148 -25q131 135 131 242q0 69 -131 190q-60 -53 -131.5 -126.5 t-71.5 -135.5v-131z" />
<glyph unicode="&#x26;" horiz-adv-x="1144" d="M59 326q23 34 37 153q10 78 80 152q30 31 121 125q4 92 -39 403q-17 119 2 240q6 41 92 104q69 51 192 51q238 0 238 -229q0 -29 -25 -104l-34 -109q-199 -180 -199 -295q0 -51 82 -139q33 -37 133 -131q68 53 92 96q10 21 31 66q20 -2 74 -17q4 -51 6 -112 q2 -54 -23.5 -153t-25.5 -148q0 -97 90 -189q-13 -18 -35 -57h-39q-64 96 -160 96q-41 0 -92 -39q-39 -31 -80 -63q-37 -23 -82 -23h-39q-55 2 -41 2q-114 0 -166 21q-84 32 -145 139q0 102 -45 160zM217 371q0 -127 12 -158q39 -96 186 -96q101 0 250 71v232 q-45 39 -69.5 67.5t-53.5 63.5q-75 92 -182 170q-143 -246 -143 -350zM370 1227q0 -41 33 -84q16 -29 51 -105q66 39 99 64q12 8 59 28v261h-174q-4 -23 -33 -76q-35 -47 -35 -88z" />
<glyph unicode="'" horiz-adv-x="546" d="M90 995v523q84 47 123 47q55 0 61 -11q15 -24 64 -75v-463q-29 -21 -88 -58q-23 -10 -37 -10q-29 0 -115 43z" />
<glyph unicode="(" horiz-adv-x="659" d="M38 1069q0 -10 6 -25l68 -18q6 70 14 139q135 351 209 351q8 0 41 -13l4 -2l59 -20l-77 106v-129q-62 -53 -103 -137q-16 -33 -69 -158q-11 -24 -13 -92q0 -41 -4 -80l82 101l-80 -21q-2 -6 -16 -67l-8 -33l71 8q-18 41 -39 41q-34 0 -36 -111q0 -65 2 -131l-2 -260h106 l-82 78l4 -59q2 -31 2 -60q4 -37 17 -55q2 -4 59 -92v-15q-2 -55 10 -79q17 -33 101 -105v-196l141 124h-102q-17 0 -43 -14q-11 -4 -25 -4q-64 0 -141 207q-41 112 -80 262q-8 8 -25 22v529q0 14 -6 24q-10 5 -20 5q-25 0 -25 -21z" />
<glyph unicode=")" horiz-adv-x="663" d="M81 14v52q102 63 158 202q30 78 96 226q10 24 10 53q-2 82 2 88q43 76 43 149q0 45 -26 109q-17 39 -17 59q0 13 2 39.5t2 38.5q0 68 -49 154q-22 39 -84 143q-69 121 -137 193v34q37 11 57 11q35 0 58 -29q147 -195 207 -354q61 -170 61 -406q0 -10 -4 -26 q-21 -76 -21 -101q0 -24 7 -45q-41 -188 -103 -338q-106 -260 -227 -260q-15 0 -35 8z" />
<glyph unicode="*" horiz-adv-x="1140" d="M53 1174v59q18 10 33 29q92 0 336 -25q32 96 39 170q2 35 10 100q14 60 63 56q64 -43 58 -111q-2 -29 -9 -68q-8 -55 9 -139q71 -14 129 -8q26 6 120 25q31 6 43 6q39 0 105 -37v-33q-57 -37 -148 -78q-77 -33 -153 -67v-111q53 -61 149 -170v-43l-65 -49 q-133 90 -250 231q-76 -61 -111 -108q-84 -109 -129 -109q-16 0 -79 39v37q75 76 151 143v144q-70 30 -199 76q-67 22 -102 41z" />
<glyph unicode="+" horiz-adv-x="1155" d="M28 535v53q23 12 39 30q51 9 186 9h152q37 108 39 192v29q-2 86 -2 106q0 117 35 183h47q82 -68 77 -193q0 -22 -4 -78q-4 -47 -4 -75q0 -189 238 -189q18 0 53 3t49 3q47 2 82 -4v-69q-121 -13 -375 -62q-37 -59 -45 -160q-4 -39 -4 -170q0 -139 -10 -139h-96 q-13 35 -35.5 104.5t-9.5 94.5q43 82 43 166q0 28 -4 59q-181 61 -451 107z" />
<glyph unicode="," horiz-adv-x="753" d="M79 119v198q35 29 99.5 59t103.5 30q102 0 207 -125q12 -15 45 -54q6 -18 6 -51v-41q-2 -57 -2 -45q0 -84 43 -130q-31 -54 -96 -156q-50 -45 -138 -96q-100 -60 -149 -60q-41 0 -119 41v64q135 53 172 78q74 49 125 141q-164 98 -297 147z" />
<glyph unicode="-" horiz-adv-x="1236" d="M16 1001q0 52 48 94t99 42h717q49 0 98.5 -43t49.5 -93q0 -47 -49.5 -90t-98.5 -43h-813q-14 35 -45 105q-6 18 -6 28z" />
<glyph unicode="." horiz-adv-x="626" d="M49 211q0 65 60.5 123.5t125.5 58.5q68 0 127.5 -62.5t59.5 -131.5q0 -72 -52.5 -134.5t-121.5 -62.5q-72 0 -140 90q-59 78 -59 119z" />
<glyph unicode="/" horiz-adv-x="1001" d="M65 41q6 4 12 12q307 725 645 1479q37 33 64 33q12 0 37 -25q0 -6 2 -27v-40q0 -9 -25 -52l-121 -211q-69 -125 -106 -219q-8 -22 -29 -114q-14 -66 -102 -195l-135 -346q-76 -180 -164 -332h-60q-6 19 -18 37z" />
<glyph unicode="0" horiz-adv-x="1241" d="M153 756q39 73 37 172q0 24 -4 90q-2 59 -2 92q0 55 14 98q4 9 16 33l27 51q37 70 53 121q117 84 150 100q76 39 172 39q244 0 373 -286q98 -217 98 -488q0 -284 -98 -497q-127 -277 -373 -277q-180 0 -273 105q-59 65 -145 284q-6 17 -4 70q2 26 4 98q2 127 -45 195z M300 801q0 -205 13 -287q22 -12 33 -22q16 -93 59 -183q51 -106 115 -149q43 -29 96 -29q104 0 196 72q27 59 50 92q28 45 69 78v782q-47 66 -157 191q-89 79 -183 79q-112 0 -233 -163q-2 -74 -30 -227.5t-28 -233.5z" />
<glyph unicode="1" horiz-adv-x="1241" d="M276 1343v97q283 112 346 112q23 0 82 -18v-1311q14 -10 47 -49q37 -65 107 -65q51 0 92 8q8 0 16 -2v-90q-160 -15 -317 -15q-160 0 -318 15v86q66 8 262 22v903q-59 37 -57 88q0 33 4 68q4 47 -2 125q-84 20 -117 20q-67 2 -145 6z" />
<glyph unicode="2" horiz-adv-x="1241" d="M219 59v207q49 35 49 68q2 10 2 31q0 47 29 84l45 57q22 29 33 67q63 54 137 129q133 136 240 222q75 61 92 102q12 31 12 133q0 123 -57 195q-62 80 -181 80q-88 0 -161 -95q-43 -55 -99 -172q-4 -8 -26 -49h-33q-21 0 -80 19v135l68 96q28 43 80 88q118 109 278 109 q92 0 221 -90q113 -78 148 -144q8 -14 8 -123q0 -37 -27 -121q-28 -92 -33 -124q-20 -17 -48.5 -58t-47.5 -57q-24 -17 -155.5 -119t-182.5 -205q-12 -24 -51 -63q-6 -4 -96 -88v-207q108 -47 211 -47q31 0 137 8q80 6 135 2q84 -6 131 -49q-194 -78 -594 -78q-98 0 -184 57 z" />
<glyph unicode="3" horiz-adv-x="1241" d="M225 1307v39q43 55 141 143q121 76 279 76q143 0 264 -146q107 -129 107 -241q0 -17 -56 -125q-96 -191 -96 -222q0 -28 84 -126q4 -7 12 -15q56 -104 56 -252q0 -200 -112 -317t-310 -117h-88q-11 -2 -5 -2q-22 2 -223 115q-10 55 -51 86v106l10 4q17 11 41 11 q13 0 60 -39q82 -68 116 -88q68 -41 140 -41q137 0 249 84q7 39 15 61q47 131 47 160q0 24 -47 143q-4 10 -17 60q-106 47 -311 141v43q92 10 178 65q41 27 148 117v273q-139 135 -236 135q-47 0 -192 -97q-35 -22 -78 -51q-31 -20 -47 -20q-19 0 -39 14q-12 6 -39 23z" />
<glyph unicode="4" horiz-adv-x="1241" d="M184 416v270q135 201 236 455q28 78 57 155q35 93 69 152q62 104 164 104q45 0 176 -41q-4 -116 -26 -346q-21 -209 -21 -229q0 10 0 -6q-2 -21 -2 -60v-59q-2 -70 13 -119q32 -121 188 -198q12 -21 20 -31q-24 -17 -38 -25q-41 -22 -129 -24q-17 -105 -72 -195 q43 -20 61 -26q-4 -66 -30 -185h-82q-11 17 -27 27q8 12 35 57q-43 82 -43 297q-256 35 -549 27zM293 545q108 0 284 -6q68 -2 154 20q-4 41 -4 76q0 129 30 188q-26 115 -26 248q0 84 10 180h-192q-19 -153 -95 -303q-49 -96 -161 -260v-143z" />
<glyph unicode="5" horiz-adv-x="1241" d="M214 825q2 35 16 93q11 26 19 49q29 180 24 540q322 45 426 45q33 0 123 -28q15 -4 101 -35v-51q-84 -23 -211 -39q-103 -15 -332 -56v-442q88 23 178 53q37 13 66 13q190 0 309 -158q94 -125 94 -262q0 -105 -155 -426q-101 -117 -275 -117q-172 0 -278 111 q-23 22 -99 94v59l13 6q16 9 43 9q20 0 120 -52l125 -63q60 -31 103 -31q125 0 217 162q71 127 71 223t-79 178q-9 7 -21 21l-37 35q-26 26 -51 61q-8 2 -14 6q-39 35 -101 35q-37 0 -135 -59q-63 -39 -84 -39q-59 0 -86 -47q-2 -2 -4 -2q-90 0 -86 114z" />
<glyph unicode="6" horiz-adv-x="1241" d="M206 643q43 74 39 234l-4 151q0 76 12 117q33 112 158 244q160 167 327 167q86 0 238 -81v-33q-18 -10 -31 -29q-34 12 -71 27q-43 14 -74 14q-102 0 -180 -55q-54 -37 -131 -133q-35 -43 -86 -90v-252q34 10 182 51q43 12 78 12q192 0 303 -209q14 -30 57 -114 q10 -21 10 -72q-4 -41 -4 -107q0 -180 -98 -317q-117 -162 -317 -162q-236 0 -363 318q-10 24 -8 61q2 23 6 86q6 104 -43 172zM356 473q0 -119 12 -194q55 -29 71 -41q156 -105 199 -105q283 0 283 365q0 340 -258 340q-307 0 -307 -365z" />
<glyph unicode="7" horiz-adv-x="1241" d="M210 1442v84q195 22 399 22q209 0 422 -22v-129q0 -4 -100 -203q-107 -209 -146 -317q-120 -332 -268 -783q-39 -33 -121 -88h-41q-8 29 -26 53q8 7 18 17l250 629q145 364 229 643q-102 59 -208 65q-33 2 -179 0q-174 -2 -229 29z" />
<glyph unicode="8" horiz-adv-x="1241" d="M167 303v49v45q2 17 2 4q0 144 16 193q25 74 117 143q6 15 17 31v23q-2 4 -2 28q0 39 -60 160q-18 37 -70 141q-18 39 -18 56q0 26 23 90q28 86 30 92q58 82 190 143.5t234 61.5q27 0 107 -39q57 -29 121 -60q22 -32 69 -80q55 -53 74 -75q6 -29 6 -133q0 -60 -8 -132 q-72 -57 -86 -90q-8 -18 -6 -59q2 -55 6 -78q6 -37 26 -74q13 -22 56 -79q61 -82 61 -203q0 -199 -139 -329t-338 -130q-100 0 -238 68q-149 71 -184 155q-6 29 -6 78zM278 436q0 -153 108 -246q103 -84 260 -84q146 0 232 98.5t86 244.5q0 104 -82 210q-103 132 -262 132 q-82 0 -281 -101q-4 -33 -35 -129q-26 -84 -26 -125zM327 1128q0 -77 76 -180q92 -125 217 -125q122 0 200 140q27 61 103 208q-45 48 -62.5 82.5t-70.5 114.5q-62 66 -170 66q-107 0 -200 -99.5t-93 -206.5z" />
<glyph unicode="9" horiz-adv-x="1241" d="M165 1059q0 41 55 225l15 72q10 45 28 65q133 142 330 142q125 0 211 -47q68 -37 160 -136q8 -77 14 -104q14 -59 43 -96v-637q0 -29 21 -43q18 -13 34 14q19 31 -2 41l-8 4q-6 4 -78 21l31 -80q-8 -8 -23 -25q-20 -6 -30 -29q-4 -14 -19 -61q-28 -90 -32 -127 q-189 -168 -201 -176q-107 -76 -246 -76q-70 0 -201 41v113q45 6 127 4q21 0 72 -3t78 -3q72 0 149 69q43 39 117 129q27 33 55 58v223q-86 -14 -200 -43q-68 -16 -97 -16q-200 0 -315 182q-88 139 -88 299zM323 1059q0 -119 43 -215q61 -139 202 -139q136 0 281 155 q2 21 12 45q52 127 52 142q0 28 -50 151q-8 21 -14 57q-41 33 -76 72q-8 10 -35 39q-65 70 -120 70q-295 0 -295 -377z" />
<glyph unicode=":" horiz-adv-x="591" d="M47 176q0 43 58.5 118t101.5 75q215 0 215 -170q0 -78 -54.5 -135.5t-132.5 -57.5q-67 0 -127.5 52.5t-60.5 117.5zM47 950q0 180 188 180q21 0 78 -32q29 -17 105 -60q4 -16 4 -65q0 -84 -64.5 -133t-150.5 -49q-88 0 -124 35.5t-36 123.5z" />
<glyph unicode=";" horiz-adv-x="708" d="M65 961q0 79 53 128.5t133 49.5q72 0 136 -68q51 -55 51 -84q0 -8 -66 -129q-71 -47 -149 -47q-158 0 -158 150zM67 98v221q125 68 156 68q209 0 284 -119q47 -73 47 -227q0 -161 -114.5 -279t-276.5 -118q-26 0 -94 21v84q68 26 166 82q149 81 164 90q-127 91 -236 136 q-24 11 -96 41z" />
<glyph unicode="&#x3c;" d="M80 616v138l864 360v-151l-680 -279l680 -276v-154z" />
<glyph unicode="=" horiz-adv-x="1167" d="M18 979v82q45 45 180 63q76 11 269 11q368 0 557 -37v-119q0 -47 -80 -57q-271 -37 -394 -37q-221 0 -448 37q-84 14 -84 57zM75 461v121h893v-121q-202 -29 -432 -29q-229 0 -461 29z" />
<glyph unicode="&#x3e;" d="M80 254v154l680 276l-680 279v151l864 -360v-138z" />
<glyph unicode="?" horiz-adv-x="995" d="M63 1286q57 156 145 213t258 57q154 0 254 -88q109 -92 109 -241q0 -133 -47 -201q-19 -27 -158 -147q-78 -68 -94 -125q-16 -92 -55 -275l-21 -14q-6 -2 -12 -2q-60 0 -76 69q-6 27 -6 117q0 195 135 283q37 24 113 86q57 63 57 162q0 88 -55 163q-60 84 -144 84 q-114 0 -178 -55q-22 -26 -86 -102q-24 -29 -53 -49q-29 22 -86 65zM309 168q0 49 41 81t92 32q31 0 65 -9q62 -14 66 -14q6 -65 39 -96l-27 -41q-73 -115 -119 -115q-51 0 -104 55.5t-53 106.5z" />
<glyph unicode="@" horiz-adv-x="1155" d="M71 1087q27 -2 78 -10q-12 43 -12 86q0 160 130 280t291 120q123 0 246 -136q49 -55 168 -237v-647q-20 -15 -49 -52.5t-45 -52.5q-49 -43 -150 -43q-131 0 -231 107q-20 20 -57 65q4 41 2 129q-9 47 -37 82q35 35 33 94q-2 15 -5 50q0 8 3 20q133 135 264 135 q37 0 80 -6l45 47l-2 70q-2 104 -109 180q-98 72 -205 72q-157 0 -225 -150q-16 58 -86 334v-1208l41 -31q14 -100 105.5 -192.5t189.5 -92.5q45 0 80 25l14 10q18 10 29 10q14 0 32 -18l19 -18l8 -7q-70 -102 -133 -102q-115 0 -172 18q-70 23 -145 95q-29 26 -70 63 q-8 66 -53 119l4 -12v2q2 6 2 10q-6 70 -15 102q-12 56 -38 92v615q0 4 -2 8zM538 700q0 -36 43 -129q6 -14 20 -75q123 4 209 22l58 12v406q-76 25 -142 25q-65 0 -135 -25q-4 -51 -12 -78q-41 -137 -41 -158z" />
<glyph unicode="A" horiz-adv-x="1222" d="M57 43v96q2 8 20 56q9 20 33 77q58 131 82 226q58 207 82 311q43 172 68 315q28 166 65 408q72 45 160 45q129 0 156 -59q8 -54 10 -144q2 -145 4 -162q22 -26 35 -36q39 -324 149 -596q21 -52 31 -158q6 -66 35 -193q26 -71 78 -137q-25 -22 -33 -59h-76q-27 55 -61 239 q-27 148 -115 240q-86 0 -215 -14q-166 -19 -217 -21q-29 -37 -37 -52t-14.5 -24.5t-36.5 -31.5l4 -7q-25 -176 -49 -247q-37 -109 -80 -109q-19 0 -78 37zM362 631q152 -39 266 -39q60 0 102 46t42 105q0 107 -244 627q-35 -143 -94 -362q-27 -99 -31 -174 q-35 -48 -41 -203z" />
<glyph unicode="B" horiz-adv-x="1044" d="M20 1518q106 36 272 36q201 0 324 -71q154 -88 154 -275q0 -69 -48 -159q-55 -107 -55 -183q0 -45 111 -237q20 -37 65 -121q29 -53 29 -68q0 -20 -4 -22l-8 -6q-9 -6 -31 -27q-27 -180 -141.5 -278.5t-296.5 -98.5q-191 0 -320 25v1245q2 10 2 18q0 37 -39 56 q-12 32 -14 166zM186 135q55 -18 90 -43q166 6 315 111q168 119 168 274q0 98 -108.5 191.5t-208.5 93.5h-256v-627zM186 891q55 -19 84 -41q18 -2 37 -2q112 0 223 88q127 102 127 235q0 103 -91 176.5t-198 73.5q-33 0 -127 -24l-55 -15v-491z" />
<glyph unicode="C" horiz-adv-x="1046" d="M79 522v543l37 -12q12 207 106 348q113 170 306 170q96 0 169 -43q54 -31 132 -115q10 -10 45 -43v-137l-4 -4q-7 -6 -23 -6q-37 0 -68 41q-75 100 -110 127q-64 49 -166 49q-45 0 -72 -13q-8 -6 -55 -30q-14 -27 -33 -51q-102 -138 -102 -177v-772l45 -32 q22 -80 76 -154q67 -92 141 -92q184 0 268 182q23 51 47 86q19 21 54 21q22 0 53 -15v-137q-86 -109 -199 -199q-24 -20 -106 -34q-68 -13 -117 -13q-244 0 -320 180q-14 35 -38 170q-19 107 -66 162z" />
<glyph unicode="D" horiz-adv-x="1185" d="M36 1542l14 -8q47 2 176 16q111 13 177 13q137 0 290 -70q127 -57 144 -92q37 -78 108 -207v-803q0 -47 31 -47q10 0 23.5 14.5t13.5 24.5q0 12 -16 20l-7 5q-10 4 -77 20l30 -80l-4 -2q-4 -4 -6 -8l-6 -8l-25 -31q0 -23 -108 -127q-49 -47 -197 -158q-53 -4 -219 -4 q-139 0 -260 21v1159l-49 -16v387zM233 162q122 -43 221 -43q135 0 239 78q106 79 106 196q0 10 -1 21l33 -8v753q-35 21 -47 45q-9 17 -17 66q-37 30 -61 55q-11 12 -43 45q-58 60 -209 60q-117 0 -221 -46v-1222z" />
<glyph unicode="E" horiz-adv-x="987" d="M28 1470q0 41 59 60q27 8 142 22q65 9 344 9q121 0 272 -60q-63 -100 -170 -100q-47 0 -141 12t-141 12q-78 0 -201 -55v-440q139 -56 201 -56q147 0 260 -20v-86q-23 0 -84 2q-52 2 -82 2q-99 -2 -295 -86v-487q80 -45 143 -54q33 -4 135 -4q39 0 116 12.5t116 12.5 t155 -41v-92q-192 -15 -387 -15q-194 0 -389 15v1360q0 37 -30 67l-11 4q-4 0 -12 6z" />
<glyph unicode="F" horiz-adv-x="802" d="M22 1358q8 133 104 174q74 31 304 31q245 0 399 -27v-88q-57 -14 -133 -16q-35 0 -94 2q-68 2 -97 2q-217 0 -319 -93v-380q39 -25 51 -35q86 -74 141 -74q146 0 265 -10q12 -8 26 -10v-52q-74 -18 -166 -18q-73 0 -221 -6q-29 -31 -49 -68q-4 -8 -47 -35v-606 q-58 -18 -104 -18h-9v1366l-26 -78l8 16z" />
<glyph unicode="G" horiz-adv-x="1153" d="M65 762q0 153 39 274q9 28 9 89q0 20 -1 44v26q0 49 6 71q31 90 142 186q124 109 254 109q120 0 253 -91q148 -96 148 -210q0 -41 -39 -111h-53q2 2 2 6q-4 33 -33 98q-39 54 -113 107q-102 74 -190 74q-74 0 -162 -97q-82 -88 -98 -166q-58 -260 -58 -327q0 -45 23 -123 q25 -84 27 -123q0 18 -1 -13.5t-3 -101.5v-15q0 -85 21 -131q22 -50 95 -114q101 -86 181 -86q167 0 268 164q74 121 74 223q0 164 -119 164q-31 0 -86.5 -12t-79.5 -14q-31 -3 -57 4v86h370q31 -31 76 -58v-579q-53 -35 -53 -176l151 59q-61 59 -86 78q-10 8 -47 35 q-22 16 -72 79q-77 -51 -178 -106q-137 -74 -186 -74q-143 0 -322 203q-4 20 -28 70q-13 24 -19 43q-26 86 -43 241q-12 119 -12 195z" />
<glyph unicode="H" horiz-adv-x="1198" d="M67 45v1505q63 13 119 15l49 -103q6 -12 6 -22q0 -39 -76 -115q72 -69 72 -99q0 -20 -43 -96q-31 -55 -31 -96q0 -47 35 -80q109 -84 238 -84q184 0 401 84q1 16 1 33q0 92 -18 245q-19 167 -18 255v16q21 21 66 60l92 -56v-1495l16 21l-6 -2q-22 -8 -86 -21 q-29 64 -29 168q0 17 3 103v155q0 99 -29 162q-17 29 -70 162h-522v-715q-6 -4 -41 -25q-23 -12 -47 -12q-33 0 -74 31z" />
<glyph unicode="I" horiz-adv-x="843" d="M36 1503q20 15 33 37q61 2 223 16q117 11 158 11q118 0 155 -19q13 -22 33 -37q-45 -59 -178 -135q-6 -131 -33 -358q-24 -209 -24 -230q0 -16 24 -233q27 -233 33 -352q18 -13 188 -111q-59 -82 -202 -82q-230 0 -363 25v69q72 29 207 37v1182q-109 94 -215 113 q-10 34 -39 67z" />
<glyph unicode="J" horiz-adv-x="1091" d="M73 256v424l12 6q17 8 41 8q41 0 99 -63q4 -21 4 -39q0 -64 -43 -125q12 -96 82 -201q84 -127 188 -127q96 0 260 109q6 24 12 31q54 71 54 112v1043q-113 3 -210 3q-49 0 -93 -1v84q131 41 204 41q123 0 156 -23q12 -22 51 -59v-1119q0 -36 -59 -122q-51 -76 -90 -109 q-76 -66 -131 -90q-66 -29 -154 -29q-100 0 -172 39q-61 35 -133 117q-21 22 -78 90z" />
<glyph unicode="K" horiz-adv-x="1089" d="M-8 14q29 -18 70 -44v34l-11 -6q-10 14 -30 45zM84 39v1513l12 7q17 8 43 8q13 0 46 -27q16 -18 53 -49q-2 -6 -27 -43q-16 -25 -16 -45q0 -14 8 -31q16 -22 37 -65q3 -6 3 -21q0 -37 -18 -127q-16 -80 -30 -158l39 -51q47 2 59 2q68 0 156 123q63 88 102 180 q12 27 19 45q104 97 190 238q20 -2 74 -16v-156q-88 -88 -207 -231q-92 -111 -238 -297q187 -242 549 -699v-92q-8 -2 -14 -6q-121 72 -164 100q-94 68 -139 129q-92 174 -140 242q-79 113 -198 197q-23 -97 -43 -220q-10 -61 -39 -114q37 -187 37 -286v-19q-21 -21 -70 -60 h-49l-21 21l-10 -6q-4 8 -4 14z" />
<glyph unicode="L" horiz-adv-x="997" d="M26 1432q0 49 28.5 93t75.5 44q33 0 103 -37v-1280q78 -80 112 -88q27 -6 62 -4l35 2h-2q0 1 215 6q38 1 73 1q104 0 177 -9v-90q-9 -4 -19 -11q-82 -49 -108 -49q-351 0 -648 25q2 47 2 94q0 168 -28 326q22 30 22 82q0 96 -6 114q-12 35 -43 60v600q0 43 -28 80 q-23 22 -23 41z" />
<glyph unicode="M" horiz-adv-x="1312" d="M81 70v1458q37 16 104 16q52 0 103 -45q45 -147 127 -362q106 -277 133 -361q43 96 188 418q99 215 131 332q35 43 80 43q47 0 56 -2q16 -4 22 -23q14 -39 51 -61v-1395q-24 -18 -37 -47q-20 2 -73 14q-17 56 -49 170q-9 29 -9 45q0 45 58 84v457q0 41 -23 96 q-8 21 -100 187q-117 -242 -156 -365q-14 -49 -61 -211q-27 -18 -47 -18q-95 0 -199 461l-49 12q-17 6 -105 28q-34 -73 -34 -100v-604q0 -41 41 -70q-43 -34 -50 -96q0 -27 4 -111l-4 -4q-6 -6 -22 -6q-17 0 -80 60z" />
<glyph unicode="N" horiz-adv-x="1107" d="M36 1493q14 16 27 37q104 29 108 29q78 0 137 -123q23 -47 45 -123l37 -127q88 -178 377 -832l17 371v-1l-3 218l-2 404q0 24 -16 57q-12 27 -27 53q43 33 80 94q25 -6 74 -30v-1508q-49 2 -106 15v12q0 49 -15 92q-35 105 -188 301q0 78 -21 121q-12 31 -67 104 q-49 64 -68 95q0 6 2 16v18q0 74 -92 179q-23 24 -131 188q-29 -186 -31 -297v-285v-528q-20 -12 -35 -35h-43q-18 0 -24 6l-6 1401q0 47 -29 78z" />
<glyph unicode="O" horiz-adv-x="1189" d="M71 797q2 30 25 108q18 64 18 103v8q-2 28 -4 112v7q0 58 33 145q12 33 22 47q92 123 154 168q88 64 219 64q330 0 430 -461q4 -23 31 -135q-4 -29 -4 -54q0 -47 14 -80q-2 -18 -10 -43q-17 -38 -29 -79q-8 -28 -8 -72v-19q2 -36 6 -143v-16q0 -125 -61 -219 q-150 -228 -369 -228q-266 0 -377 303q-24 68 -41 164l-29 168q2 25 2 47q0 71 -22 105zM169 643q0 -12 4 -27q0 -63 62 -194q51 -109 102 -184q27 -39 89.5 -70t111.5 -31q145 0 244 166q82 139 82 289l38 -10v254q-57 38 -57 129v12q2 22 4 88v24q0 57 -8 82 q-88 261 -303 261q-131 0 -203 -54q-22 -57 -55 -127q-55 -114 -64 -227q-3 -33 -3 -84q0 -25 1 -55q1 -66 1 -113t-1 -76q-45 -12 -45 -53z" />
<glyph unicode="P" horiz-adv-x="1017" d="M-18 14q29 -18 72 -44l-2 34l-11 -8q-10 16 -30 47zM76 37v1491q23 10 39 28q82 3 248 11q16 1 27.5 1t19.5 -1q37 -4 307 -103q23 -51 96 -112q0 -4 35 -111q23 -74 23 -104q0 -9 -19.5 -38.5t-23.5 -54.5q-35 -233 -184 -323q-117 -72 -375 -84q-41 -107 -43 -221 q0 -29 2 -82q2 -60 2 -84q0 -199 -72 -240h-47l-23 21l-8 -6q-4 6 -4 12zM240 745h178q86 0 209 91q82 73 82 184v82q0 332 -287 332q-32 0 -127 -25l-55 -14v-650z" />
<glyph unicode="Q" horiz-adv-x="1171" d="M69 430v776q0 15 55 125q86 121 138 152q38 22 119 49t120 27q123 0 277 -125q137 -113 143 -166q16 -144 51 -338q10 -33 10 -66q0 -57 -30 -114q14 -74 14 -148q0 -106 -45 -307q-2 -12 -59 -74q-82 -90 -82 -141q0 -43 61 -141q51 -82 88 -139v-86l-24 -6 q-33 -9 -95 -11q-53 125 -71 158q-56 98 -107 135q-22 16 -213 47q-121 20 -178 63t-102 156q-19 45 -70 174zM180 451q30 -33 43 -56q49 -90 102 -157q84 -107 201 -107q96 0 225 98q37 84 76 226q45 161 45 231q0 64 -47 94q0 138 -17 416l-67 84q-27 33 -39 78 q-158 74 -252 74q-82 0 -168 -107q-8 -12 -43 -55q-2 -43 -14 -131q-15 -13 -33 -31q-4 -8 18 -10q-4 -8 -4 -15l-4 4q2 -6 6 -10l4 10q-16 -114 -32 -636z" />
<glyph unicode="R" horiz-adv-x="1148" d="M63 1384v117q186 64 356 64q260 0 451 -240q8 -51 8 -145q2 -146 2 -150q1 -26 1 -42t-1 -23q0 -37 -33 -60q-108 -76 -237 -200q53 -103 185 -293.5t186 -292.5v-86h-87q-69 49 -176 213q-16 24 -149 248q-10 30 -27 63q-8 16 -51 100h-256v-630q-31 -9 -59 -9 q-31 0 -62 9v1312l-43 -73l-2 4q-6 43 -6 114zM235 745h234q51 0 124.5 54.5t100.5 103.5q67 127 67 219q0 76 -69 178q-84 125 -199 125h-258v-680z" />
<glyph unicode="S" horiz-adv-x="1105" d="M88 227l2 6q14 23 37 72h86q154 -143 332 -143q141 0 227 82q25 24 23 51q4 18 53 55l-8 25h2q0 119 -136 342q-303 119 -372 162q-201 125 -201 319q0 176 103.5 272.5t281.5 96.5q199 0 383 -154v-84l-12 -6q-17 -8 -41 -8q-19 0 -142 55q-147 66 -188 66 q-223 0 -223 -226q0 -184 233 -299q209 -102 256 -135q111 -76 148 -196q22 -76 22 -226v-26q0 -52 -8 -70q-22 -55 -192 -153.5t-236 -98.5q-108 0 -231 72q-78 47 -199 149z" />
<glyph unicode="T" horiz-adv-x="1148" d="M63 1432v61q123 27 332 49q168 19 213 19h-2q0 -2 153 -23q76 -10 142 -10q42 0 80 4v-109q-29 -8 -132 -10q-155 -4 -264 -92v-1303l-10 -6q-8 -6 -29 -6q-14 0 -84 62l-10 165q-1 8 -1 16q0 75 54 116v841q-43 31 -47 86q0 15 -2 62q-125 43 -254 59q-47 6 -139 19z " />
<glyph unicode="U" horiz-adv-x="1130" d="M18 1366q0 145 37 199q55 -4 129 -35v-1161q0 -47 37 -84l26 -27q58 -88 162 -88h103q77 0 213 84q10 61 49 127q26 45 26 172q0 174 -61 270v684q24 21 76 60h45q14 -35 39 -54v-1144q0 -4 4 -15l10 -24q37 20 37 39q0 4 -2 8l-29 10q2 0 4 4q-10 4 -71 25q1 -12 1 -24 q0 -129 -119 -249q-130 -131 -274 -131q-41 0 -150.5 43t-136 71t-55.5 79q-34 65 -47 82v1003l-45 -88q-8 55 -8 164z" />
<glyph unicode="V" horiz-adv-x="997" d="M61 1479q0 26 37 90h53q25 0 62 -37q6 -53 45 -141q55 -119 61 -138q7 -34 7 -93q0 -24 -1 -51.5t-1 -50.5q0 -59 7 -93q70 -297 142 -641q143 364 176 694q14 12 33 37q22 192 34 252q27 141 78 239q33 23 55 23q15 0 97 -53q-185 -443 -236 -783l-2 -18l-102 -668 q-78 -39 -123 -39q-19 0 -68 39l-65 410q-31 196 -99 401l-116 359q-74 227 -74 262z" />
<glyph unicode="W" horiz-adv-x="1234" d="M-47 1501h100q13 2 41 15q23 12 45 12q25 0 62 -31l143 -88l-209 274q15 -45 51 -174q3 -8 35 -90q23 -57 23 -86q0 -35 -53 -73q38 -105 45 -191q4 -57 4 -170q0 -242 116 -483q60 159 99 309l55 215q23 6 74 16q45 -110 86 -338q43 -38 151 -92q6 64 47 535 q25 276 27 448q25 7 51 7q27 0 56 -7v-405q0 -47 30 -47q19 0 23 24q6 10 6 18q0 10 -10 15l-8 4q-9 6 -72 21l26 -76q-2 -4 -14 -19l-24 -30q-5 -158 -28.5 -474.5t-27.5 -473.5l-2 -80l80 98l-63 -14l-43 -15q-25 -8 -45 -8q-113 0 -185 363q-26 43 -114 116 q-136 -325 -189 -475h-110q-3 123 -52 191v753l-39 -82l-24 27q-12 -6 -14 -4q-19 6 -113 37l184 -195q-37 137 -37 185v47q2 65 2 47q0 119 -51 180v397z" />
<glyph unicode="X" horiz-adv-x="999" d="M-12 1501l68 15l55 16q20 6 45 6q39 0 106 -133q39 -82 156 -322q162 142 191 254q14 60 41 131q49 95 133 95q16 0 30 -13q6 -8 23 -20l4 -4v-92l139 6l-6 69l-139 -18q4 -21 4 -25q-12 -20 -43 -80l-148 -294q-118 -238 -118 -281t137 -297l172 -319v-160 q-43 -4 -84 -19q-51 54 -90 195q-31 115 -47 149q-39 86 -166 191q-88 -109 -217 -399q-64 -144 -105 -144q-12 0 -69 23l12 -19v158q68 121 164 301q147 277 147 328q0 59 -131 305q-119 221 -180 301v197z" />
<glyph unicode="Y" horiz-adv-x="1075" d="M51 1458v94l20 9q37 10 64 10q70 0 98 -51q17 -31 29 -115q6 -49 20 -88q29 -82 172 -352q134 122 164 229q15 53 56 211q16 59 34 94q72 72 111 72q23 0 57 -17l2 -155q0 -23 -151 -301q-166 -303 -166 -344v-705q-37 -12 -70 -33l-14 13q-23 18 -59 41v653 q0 37 -72 172q-4 6 -78 141q-166 299 -217 422z" />
<glyph unicode="Z" horiz-adv-x="1134" d="M69 35v59l627 1235q-129 94 -265 94q-34 0 -101.5 -12t-102.5 -12q-84 0 -158 57v84q219 10 440 10q222 0 443 -10v-88q-95 -117 -174 -283q-4 -8 -140 -303q-53 -116 -305 -532v-195q135 6 230 6q288 0 411 -51q-121 -86 -543 -86q-215 0 -362 27z" />
<glyph unicode="[" horiz-adv-x="731" d="M40 1524q113 26 250 26q203 0 291 -39v-20q-43 -39 -121 -43q-27 0 -131 -2q-127 -2 -189 -82v-1174q39 -28 37 -45q0 -65 70 -69q10 -2 32.5 2t30.5 4q27 0 70 12q22 6 31 6q57 0 168 -57v-14q-15 -6 -25 -17q-53 -4 -164 -4q-139 0 -162 2q-88 8 -149 51v1160l-37 -2 q2 32 33 75q-29 76 -33 146q-2 35 -2 84z" />
<glyph unicode="\" horiz-adv-x="972" d="M61 1516q0 10 31 49h43q14 -19 47 -54q6 -26 39 -79q47 -76 49 -80q37 -90 74 -209q53 -174 69 -215q58 -142 199 -420q151 -295 219 -451q-20 -20 -29 -51h-59q-43 53 -113 168q-69 162 -202 502l-203 522q-19 31 -109 191q-55 98 -55 127z" />
<glyph unicode="]" horiz-adv-x="765" d="M36 1479v67q117 6 246 4q63 -2 266 -8v-1487q-20 -12 -31 -35q-78 -2 -237 -10l-152 -8q-10 0 -33 10l-18 13v61q53 4 123 4q102 0 235 -8v1327q-55 82 -155 82q-31 0 -94.5 -9t-94.5 -9q-28 0 -55 6z" />
<glyph unicode="^" d="M-10 793l467 589h110l467 -589h-153l-369 450l-369 -450h-153z" />
<glyph unicode="_" horiz-adv-x="800" d="M14 -311q0 31 38 62.5t79 31.5h778q47 0 92 -47q25 -24 25 -47q0 -28 -41 -60t-76 -32h-854q-16 31 -39 78q-2 10 -2 14z" />
<glyph unicode="`" horiz-adv-x="1071" d="M272 1411v62q25 20 37 51h149q25 0 170 -64q62 -26 228 -94v-119l4 15l-4 -5l-2 -4q-4 -2 -27 -2q-53 0 -274 68q-183 55 -281 92z" />
<glyph unicode="a" horiz-adv-x="1087" d="M69 356q0 209 100 289q93 74 455 160q-55 160 -129 186q-39 15 -129 15q-30 0 -96 -14q-57 -12 -91 -11h-10v84q43 12 133 35q123 30 162 30q117 0 176 -26q86 -37 105 -135q10 -54 14 -189q6 -123 25 -188l-17 -19l50 -79l96 26l2 70l-148 -23q23 -61 33 -157l17 -160 q6 -45 40 -74v-108q-4 -7 -10 -11h-14q-12 0 -53 25q-74 45 -119 45q-37 0 -117 -43q-37 -21 -110 -61q-27 -15 -43 -15q-322 0 -322 348zM163 406q66 -97 88 -127q51 -68 103 -119h129q53 78 123 116v316q-13 2 -97 20q-63 15 -94 15q-86 0 -153 -84q-23 -35 -99 -137z M819 516l8 2l45 -74l33 27q-48 45 -68 59l-4 11z" />
<glyph unicode="b" horiz-adv-x="1101" d="M90 66v1454q37 8 76 8t78 -8v-365q12 -12 26 -33q25 -35 70 -35h26q21 0 59 11.5t54 11.5q305 0 434 -322q8 -20 11 -96q0 8 0 -14q-3 -23 -3 -53v-54q0 -143 -2 -159q-8 -66 -55 -181q-16 -38 -126.5 -131.5t-145.5 -93.5q-107 0 -461 29q-14 10 -41 31zM248 260 q57 -49 127 -84q32 -16 135 -78q20 19 137 111q88 70 102 113q62 186 62 272q0 92 -88 223q-113 166 -268 166q-74 0 -207 -72v-651z" />
<glyph unicode="c" horiz-adv-x="978" d="M71 614q0 170 117 330q137 186 336 186q45 0 145 -47q82 -39 137 -75v-119l-8 -4q-16 -8 -37 -8q-4 0 -182 106q-51 31 -90 31q-49 0 -160 -105q-20 -20 -59 -49q-2 -26 -45 -219q-9 -37 -9 -61q0 -148 80 -275q101 -160 262 -160q39 0 156 82q21 15 76 52q12 4 18 4 q21 0 47 -13v-94q-75 -43 -176 -119q-12 -10 -43 -30q-41 -21 -125 -21q-211 0 -338 225q-102 183 -102 383z" />
<glyph unicode="d" horiz-adv-x="1118" d="M63 559q0 240 115 387q127 164 360 164q29 0 68 -20q26 -15 102 -56q31 140 33 236q0 84 16 203q23 83 92 83q13 0 52 -32l2 -4v-1471q-109 33 -158 33q-41 0 -158 -39q-104 -35 -127 -35q-192 0 -303 191q-94 161 -94 360zM180 559q0 -137 63 -262q90 -178 269 -178 q55 0 114 35q27 16 111 63v684q-154 72 -225 72q-164 0 -261 -164q-71 -123 -71 -250z" />
<glyph unicode="e" d="M47 539q0 249 94 407q115 193 348 193q123 0 244 -105q92 -80 145 -174q5 -8 9 -59q4 -68 45 -119v-88q-111 -59 -152 -59l-536 2l-45 -43v-201q59 -53 159 -103q113 -55 181 -55q34 0 126 43q58 27 84 27h95q12 -27 30 -45q-8 -35 -34 -54q-64 -43 -201 -71 q-115 -25 -174 -25q-221 0 -328 162q-90 135 -90 367zM203 655q182 -8 319 -8q156 0 254 10v193q-45 16 -57.5 29.5t-36.5 40.5q-62 69 -193 69q-118 0 -168 -49q-38 -25 -77 -51q-41 -33 -41 -76v-158z" />
<glyph unicode="f" horiz-adv-x="1013" d="M57 985v98q113 23 129 27q64 18 121 57q4 136 32.5 208.5t118.5 178.5h25v-2q0 -69 74 -98l8 -4q-76 -88 -76 -164q0 -166 160 -184q70 0 203 -19v-88q-43 4 -84 4q-91 0 -168 -20q-162 -41 -162 -156q0 -59 49 -127v-651q-74 -41 -84 -41q-20 0 -82 39l-2 891 q-92 24 -188 39q-41 6 -74 12zM727 1630h53q53 0 231 -108l-2 -76l15 20q-58 -22 -70 -22q-72 0 -133 63z" />
<glyph unicode="g" horiz-adv-x="1069" d="M55 623q0 510 373 510q43 0 106 -17l105 -26q41 -11 82 -11q63 0 131 25v-1286l53 209q4 -17 4 -72q0 -184 -148.5 -321t-332.5 -137q-117 0 -264 75q-19 43 -52 64v63l23 9q35 12 63 12q23 0 90 -33q95 -45 140 -45q92 0 170 62q35 26 135 108v223q-66 16 -127 16 q-23 0 -53 -4q-80 -10 -99 -10q-237 0 -331 186q-68 135 -68 400zM180 623q0 -467 371 -467q47 0 118 47q13 6 58 26q0 365 8 473l6 5q43 28 43 96q0 94 -106 168q-97 67 -195 67q-188 0 -258 -143q-45 -92 -45 -272z" />
<glyph unicode="h" horiz-adv-x="1042" d="M90 47v1477q23 4 47 4q29 0 59 -6q3 -109 31 -267q25 -133 49 -264q220 121 295 121q117 0 156 -49q47 -57 57 -70q33 -37 66 -57v-916l-10 -12q0 8 -21 12q-27 7 -31 11q-12 10 -43 37v780q-129 137 -198 137q-62 0 -101 -33l-12 -6q-188 -215 -188 -299v-581 q-23 -23 -64 -54q-6 -2 -14 -2q-19 0 -78 37z" />
<glyph unicode="i" horiz-adv-x="751" d="M32 1038q33 52 127 68q47 8 152 8q67 0 196 -10q19 -17 41 -27v-1034q-16 -10 -45 -27q-14 -6 -35 -6q-22 0 -80 17v899q-71 63 -155 63q-15 2 -27 2q-35 0 -47 -22l8 -4q-12 2 -39 10q-16 8 -96 63zM284 1329v172q74 55 106 55q60 0 115 -59q45 -49 45 -72 q0 -36 -49 -83.5t-86 -47.5q-45 0 -131 35z" />
<glyph unicode="j" horiz-adv-x="974" d="M59 -36q27 8 88 18q23 -61 66 -156q59 -133 206 -133q201 0 220 160q65 585 65 753q0 175 2 175v-1q-10 144 -104 201q-51 12 -217 20q-17 21 -43 33v62q131 22 288 22q56 0 152 -43v-1378l51 158q-6 4 -10 4q-6 0 -27 -57q-10 -29 -22 -60q-41 -100 -148.5 -163.5 t-220.5 -63.5q-90 0 -164 55q-53 41 -133 140q-33 41 -49 53v201zM538 1403v141q51 10 107 10q63 0 133 -12v-119q-29 -22 -43 -57h-156q-14 23 -41 37z" />
<glyph unicode="k" horiz-adv-x="946" d="M57 61v1498q12 1 25 1q71 0 137 -20l22 -840q164 131 262 238q9 25 17 55v8q14 15 92 89q31 28 90 28q19 0 90 -22h6l-16 18v-74l-154 -182q-22 -27 -71 -59q-15 -11 -117 -66l-16 -37q2 -34 2 -49q0 -65 67 -139q35 -39 123 -111q23 -18 105 -123q57 -73 112 -116v-237 l152 138h-101q-16 0 -51 -13t-53 -13q-39 0 -197 180q-112 127 -211 260h-153v-420q-43 -12 -127 -35q-15 27 -35 43z" />
<glyph unicode="l" horiz-adv-x="776" d="M67 1442v76q11 -4 26 -4q31 0 78 16q99 31 205 31h13q36 -2 139 -5q18 -6 31 -8v-1511q-9 -4 -41 -23q-23 -12 -45 -12q-23 0 -84 18v1199l-46 -66l-4 4q-8 107 -18 191q-55 32 -123 52.5t-131 41.5z" />
<glyph unicode="m" horiz-adv-x="1234" d="M65 924q0 127 33 178h24q19 -43 74 -45q4 0 16 2q48 0 119 26q56 21 74 21q20 0 80 -21q76 -26 125 -26q35 0 137 37q90 32 115 32q96 0 127 -141q6 -29 28 -149q15 -76 39 -113v-639q-20 -12 -33 -31h-61q4 60 4 68q-2 70 -57 104v731q-19 21 -27 33q-20 31 -65 35 q-4 2 -27 2q-53 0 -125 -80q-12 -12 -43 -33v-874q-20 -10 -41 -27q-27 17 -82 47v875q-33 41 -37 45q-22 20 -55 23h-27q-47 0 -122 -82q-5 -4 -35 -29q-2 -43 -11 -119q-4 -35 -38 -137q16 -6 41 -12v-582q-45 -17 -85 -17q-8 0 -16 1v749q0 43 -33 60q11 8 35 36 q-51 41 -51 52z" />
<glyph unicode="n" horiz-adv-x="1040" d="M38 1077q16 17 27 35h98q2 -2 8 -10q51 -60 105 -60q32 0 243 84q31 13 51 13q86 0 142 -47q4 -2 98 -111q10 -76 55 -113v-735q-41 -33 -49 -88l-26 -29l41 -38q-29 -21 -107 -78l29 -29q61 72 73 93q21 34 5 54q-13 15 -33 15h-6q-9 0 -76 57v836q-39 22 -49 30 q-68 56 -121 56q-238 0 -270 -285q-2 -12 -7 -57l-32 -33q-2 -84 -2 -158q0 -246 30 -393q-18 -20 -37 -53l-6 -4q-39 -19 -69 -19q-21 0 -74 17v727q27 10 231 59l-227 57q0 13 2 42.5t2 43.5q-2 74 -49 121z" />
<glyph unicode="o" horiz-adv-x="1089" d="M20 567q12 0 25.5 19.5t19.5 23.5q-2 22 -2 44q0 177 102 313q121 163 324 163q209 0 324 -186q96 -158 96 -379q0 -227 -107 -383q-120 -180 -338 -180q-133 0 -206 47q-142 90 -183 244q-8 31 -8 98q0 90 -8 156zM221 682q0 -16 2 -56t2 -61v-16q-2 -19 -2 -33v-63 q0 -82 12 -146q53 -57 141 -112q105 -68 162 -68q100 0 166 182q51 142 51 269v108q0 66 -14 135l-19 21l-18 22q-41 49 -100 101q-76 63 -115 63q-68 0 -149.5 -71.5t-106.5 -141.5q-12 -34 -12 -110v-23z" />
<glyph unicode="p" horiz-adv-x="1116" d="M75 -354v1458q59 33 78 33q10 0 37 -21q65 -51 112 -51t150 41q76 31 102 31q121 0 219 -88q60 -54 154 -189q10 -37 10 -106v-72q0 4 -2 -41v-25q0 -235 -96 -397q-115 -194 -336 -194q-82 0 -172 30l-102 -100q8 -57 20 -81q33 -68 33 -84q0 -21 -27 -99 q-16 -51 -35 -102q-2 6 -10 6h-98q-12 33 -37 51zM233 582q0 -197 8 -297q186 -154 262 -154q154 0 227 205q52 141 52 309l6 6q37 37 37 99q0 49 -68 151q-86 131 -203 131q-219 0 -286 -155q-35 -80 -35 -295z" />
<glyph unicode="q" horiz-adv-x="1114" d="M51 594q0 65 39 180q16 74 59 176q37 47 135 111q117 76 193 76q23 0 121 -52q24 -14 78 -36l6 -2q53 -27 96 -29l90 14q12 -26 35 -43v-1138q0 -41 37 -78l8 -8q6 -6 6 -18q0 -21 -20 -64q-11 -20 -25 -55h-113q-26 213 -26 229q0 90 45 194q-82 17 -135 17 q-35 0 -146 -33q-20 -6 -30 -6q-80 0 -211 75q-95 54 -119 82q-35 39 -55 125q-17 74 -29 105q-39 98 -39 178zM209 618q0 -124 8 -174q12 -71 59 -165q2 -3 68 -86q33 -35 72 -35h92q22 12 168 90q18 10 51 31q4 12 26 40q43 35 43 84v424q-47 68 -118 127q-92 78 -150 78 q-90 0 -311 -182q-8 -182 -8 -232z" />
<glyph unicode="r" horiz-adv-x="1019" d="M38 1028v70l16 6q29 10 97 12q12 0 22 -2q17 -82 117 -178q84 65 197 147q75 56 133 56q16 0 73 -31q25 -12 101 -45q96 -135 96 -174q0 -25 -38 -55.5t-62 -30.5q-47 0 -86 88q-11 22 -50 102h-110q-82 -82 -154 -172q-108 -137 -108 -190v-580q-23 -18 -37 -47h-127 q-12 19 -31 31v1009q-33 -10 -49 -16z" />
<glyph unicode="s" horiz-adv-x="946" d="M55 152v73q66 33 94 33q21 0 121 -41q125 -51 166 -51q86 0 168 72q18 16 86 69q-49 58 -60 74q-49 76 -98 121q-23 -4 -45 -4q-57 0 -110 28q-48 25 -142 88q-53 35 -84 50q-2 8 -30 102q-21 68 -21 98q0 131 78 197.5t211 66.5q90 0 332 -104v-92l-11 -4q-14 -8 -37 -8 q-16 0 -92 38q-104 54 -145 54q-43 0 -191 -80v-156q148 -117 435 -223q34 -35 86 -100q53 -111 53 -150q0 -49 -78 -131q-24 -18 -117 -106l-37 -37l-129 -25q-51 0 -190 53q-104 41 -213 95z" />
<glyph unicode="t" horiz-adv-x="1030" d="M55 1028v49q158 43 229 99q19 55 19 129v88q2 75 74 75q65 0 73 -20q13 -35 43 -55q-41 -76 -41 -115q0 -94 78 -143q64 -41 164 -41h-1q0 1 118 18q12 -18 32 -29v-79q-69 -35 -100 -35q-10 0 -43 12t-55 12q-53 0 -141 -73q-15 -13 -54 -35v-647l56 -29q59 -31 114 -31 q37 0 107 45q35 23 102 70q8 2 12 2q23 0 52 -12v-101q-27 -14 -148 -123q-57 -51 -174 -51q-63 0 -217 109q-6 69 -53 108v684q-64 39 -101 54q-57 24 -145 65z" />
<glyph unicode="u" horiz-adv-x="1067" d="M32 1028q0 84 76 84q55 0 63 -16q15 -29 60 -84v-754q120 -86 192 -86q49 0 123 49q64 39 107 86q6 135 51 197q-17 80 -19 162q-1 30 -1 66t1 77q1 32 1 61q0 132 -15 209q57 58 90 58q21 0 49 -15l6 -108q7 -105 43 -160l-12 -807q8 2 -12 2q-45 0 -127 109 q-113 -70 -152 -101q-12 -10 -47 -43q-16 -12 -110 -12q-91 0 -123 14q-54 23 -142 115q-4 90 -53 135v666q0 53 -39 82l-8 6q-2 4 -2 8z" />
<glyph unicode="v" horiz-adv-x="1069" d="M51 1047q0 20 25.5 50.5t46.5 30.5q10 0 78 -18q63 -190 253 -692q103 127 125 178q9 14 39 88q23 195 117 426q25 18 47 18q17 0 94 -53v-41q-106 -135 -132.5 -252.5t-141.5 -480.5q-8 -25 -23 -123q-12 -78 -34 -115q-11 -16 -43.5 -35.5t-53.5 -21.5q-30 17 -63 98 q-121 299 -203 635q-16 23 -31 33v4q0 33 -18 103q-82 133 -82 168z" />
<glyph unicode="w" horiz-adv-x="1251" d="M83 967v127l16 6q27 10 58 10q26 0 55 -29l10 -10q8 -102 39 -266q39 -221 45 -268h129q33 79 47 159q7 29 25 111q25 90 94 90q31 0 74 -113q26 -69 104 -274q95 72 127 127q33 59 33 153v21q-5 122 -5 164q0 14 1 20q8 88 66 140h40q33 -56 33 -146q0 -31 -16 -76 q-23 -61 -25 -75q-12 -168 -35 -428q-20 -242 -104 -402h-49q-19 0 -62 39q-47 238 -133 371q-8 6 -69 133q-76 -164 -129 -309l-80 -217l-4 -2l-6 -7q-11 -8 -37 -8q-41 0 -68 109q-8 37 -18 137q-9 88 -26 138t-28 126q-8 60 -18 160q-18 27 -33 37q-2 12 -2 28q0 -6 0 2 q2 13 2 35v37v7q0 93 -51 143z" />
<glyph unicode="x" horiz-adv-x="1083" d="M73 16v111q293 379 293 463q0 61 -100 219q-74 115 -144 199v122h74q135 -137 280 -399q144 221 289 397h70v-110q0 -19 -21 -49q-43 -64 -127 -170q-94 -121 -94 -185q0 -79 133 -268q115 -162 207 -246v-41q-22 -16 -65 -49q-197 109 -359 436q-100 -112 -149 -180 q-25 -35 -97 -129q-104 -135 -139 -135q-22 0 -51 14z" />
<glyph unicode="y" horiz-adv-x="1130" d="M-30 -241l21 6q40 12 63 12q18 0 72 -35q37 -24 73 -49q103 60 173.5 171.5t70.5 223.5q0 62 -92 258q-39 84 -123 250q-41 80 -45 94q-59 184 -109 273v139h132q63 -131 116 -281q33 -100 158 -467q145 234 197 373q22 66 88 252q24 70 63 147q60 -2 131 -18v-156 q0 -20 -57 -114q-35 -58 -92 -179q-15 -51 -138 -376q-84 -224 -112 -381q-8 -45 -74 -209l-8 -20q-21 -53 -113 -109.5t-151 -56.5q-92 0 -209 129q-20 22 -35 33v90z" />
<glyph unicode="z" horiz-adv-x="1005" d="M61 59q82 197 254 453q149 213 297 428q-137 23 -342 49q-23 3 -46 3q-60 0 -124 -19v125q115 39 168 39q57 0 166.5 -6.5t161.5 -6.5h65q93 0 162 4v-157q-88 -92 -238 -332q-141 -225 -245 -326v-163q155 -5 491 -5q10 -30 35 -90q-88 -51 -164 -51h-459q-53 0 -182 55 z" />
<glyph unicode="{" d="M307 530v175q82 19 110.5 56.5t28.5 178.5v240q0 206 55.5 284t194.5 78h23v-120q-87 -2 -114 -22.5t-27 -107.5v-313q0 -173 -30 -242.5t-104 -118.5q72 -54 103 -125t31 -221v-63v-266q0 -86 26.5 -106t114.5 -22v-122h-23q-138 0 -194 78.5t-56 285.5v238 q0 141 -28.5 179t-110.5 56z" />
<glyph unicode="|" d="M451 -483v2048h120v-2048h-120z" />
<glyph unicode="}" d="M268 -185q88 2 115 22t27 106v340q0 144 30 213t101 122q-73 48 -102 115t-29 234v59v266q0 87 -27.5 107.5t-114.5 22.5v120h23q138 0 193 -77t55 -285v-240q0 -141 28.5 -178.5t110.5 -56.5v-175q-82 -18 -110.5 -56t-28.5 -179v-238q0 -208 -55 -286t-193 -78h-23v122 z" />
<glyph unicode="~" d="M82 557v148q69 46 129.5 69t112.5 23q68 0 194.5 -43t183.5 -43q53 0 113 25.5t129 76.5v-147q-70 -47 -130.5 -70t-115.5 -23q-60 0 -185.5 43t-193.5 43q-49 0 -109.5 -26t-127.5 -76z" />
<glyph unicode="&#xa1;" horiz-adv-x="682" />
<glyph unicode="&#xa2;" d="M131 487q0 240 105 381.5t296 161.5l35 336h97l-37 -332q67 -10 123 -32.5t100 -57.5v-160q0 -17 -5 -22.5t-26 -5.5h-10q-44 0 -49 19q-5 21 -15 41q-19 40 -51 60.5t-79 22.5l-85 -790q9 -1 19 -2t22 -1q58 0 120.5 35.5t121.5 102.5l86 -101q-57 -82 -148.5 -127 t-201.5 -45q-5 0 -16 1t-17 1l-22 -215h-95l25 236q-147 51 -220 174.5t-73 318.5zM289 502q0 -149 36.5 -238.5t112.5 -130.5l80 764q-115 -31 -172 -129.5t-57 -265.5z" />
<glyph unicode="&#xa3;" d="M68 84q118 89 173.5 193t55.5 237q0 30 -4 69t-12 91h-154v133h139q-11 80 -16.5 136.5t-5.5 94.5q0 175 88 273t243 98q139 0 218 -78t79 -215v-4h-136q-4 75 -47 117.5t-116 42.5q-78 0 -125 -55.5t-47 -149.5q0 -49 18 -211q3 -31 5 -49h244v-133h-223q1 -22 4 -60 q8 -85 8 -114q0 -93 -27 -167t-90 -155q18 3 35 4.5t33 1.5q59 0 148.5 -41t131.5 -41q62 0 94.5 42t32.5 122q0 17 -0.5 32t-1.5 29h133q1 -7 1.5 -17.5t0.5 -28.5q0 -156 -75 -238t-216 -82q-81 0 -188 46t-135 46q-40 0 -82.5 -18.5t-91.5 -59.5z" />
<glyph unicode="&#xa4;" horiz-adv-x="1139" />
<glyph unicode="&#xa5;" d="M76 612v78h332l-80 178h-252v76h219l-195 426h172l248 -606l236 606h149l-172 -426h213v-76h-246l-69 -178h315v-78h-350v-612h-156v612h-364z" />
<glyph unicode="&#xa6;" horiz-adv-x="532" />
<glyph unicode="&#xa7;" horiz-adv-x="878" d="M59 801q0 33 61 147q76 144 76 160q0 27 -18 57q-19 25 -39 49q-35 52 -35 107q0 102 75 166.5t179 64.5q8 0 211 -47q25 -30 84 -84v-67l-8 -4q-13 -7 -35 -7q-8 0 -31 11q-149 94 -198 94q-68 0 -109 -31l-33 -24v-144q72 -55 234 -170q110 -78 176 -133q2 -12 31 -100 q20 -62 20 -98q0 -11 2 -32.5t2 -31.5q0 -27 -18 -43l-43 -37q-37 -39 -37 -141q0 -53 20.5 -160.5t20.5 -161.5q-68 -71 -117 -100q-65 -35 -149 -35q-76 0 -228 92v109l8 4q13 6 35 6q10 0 68 -41q92 -65 139 -65q45 0 88 28q12 11 86 58q-65 139 -158 225 q-53 49 -186 125q-88 49 -125 94q-49 59 -49 160zM194 823q0 -59 66 -151q82 -115 188 -115q47 0 109 37q8 6 53 27v196q-39 55 -160 139q-8 7 -59 45h-125q-72 -118 -72 -178z" />
<glyph unicode="&#xa8;" d="M217 1268q0 41 30.5 71.5t71.5 30.5q42 0 71.5 -30t29.5 -72q0 -46 -28.5 -75.5t-72.5 -29.5q-43 0 -72.5 30t-29.5 75zM602 1268q0 41 30.5 71.5t72.5 30.5q41 0 70.5 -30t29.5 -72q0 -46 -28.5 -75.5t-71.5 -29.5q-44 0 -73.5 30t-29.5 75z" />
<glyph unicode="&#xa9;" d="M6 684q0 100 38 191.5t110 164.5q72 72 165.5 111t194.5 39q99 0 192.5 -38.5t163.5 -109.5q70 -69 109 -164t39 -194q0 -210 -147.5 -358t-358.5 -148q-102 0 -194.5 38t-163.5 110q-72 70 -110 162t-38 196zM80 684q0 -180 126 -306t306 -126t306 126t126 306 t-126.5 307t-305.5 127q-180 0 -306 -127t-126 -307zM289 686q0 177 57.5 272t165.5 95q87 0 139 -52t60 -147l-107 -8q-10 58 -31.5 83t-60.5 25q-55 0 -83 -67t-28 -201q0 -140 29 -204t92 -64q37 0 57.5 21.5t36.5 78.5l97 -24q-19 -87 -68 -132t-125 -45 q-113 0 -172 94.5t-59 274.5z" />
<glyph unicode="&#xaa;" horiz-adv-x="758" />
<glyph unicode="&#xab;" horiz-adv-x="1139" />
<glyph unicode="&#xac;" horiz-adv-x="1196" />
<glyph unicode="&#xad;" horiz-adv-x="1236" d="M16 1001q0 52 48 94t99 42h717q49 0 98.5 -43t49.5 -93q0 -47 -49.5 -90t-98.5 -43h-813q-14 35 -45 105q-6 18 -6 28z" />
<glyph unicode="&#xae;" d="M6 684q0 100 38 191.5t110 164.5q72 72 165.5 111t194.5 39q99 0 192.5 -38.5t163.5 -109.5q70 -69 109 -164t39 -194q0 -210 -147.5 -358t-358.5 -148q-102 0 -194.5 38t-163.5 110q-72 70 -110 162t-38 196zM80 684q0 -180 126 -306t306 -126t306 126t126 306 t-126.5 307t-305.5 127q-180 0 -306 -127t-126 -307zM332 406v585h162q106 0 160.5 -44.5t54.5 -131.5q0 -55 -25 -94.5t-78 -67.5l139 -247h-120l-119 229h-66v-229h-108zM440 713h56q49 0 75.5 27.5t26.5 78.5q0 45 -25.5 66.5t-78.5 21.5h-54v-194z" />
<glyph unicode="&#xaf;" horiz-adv-x="1131" />
<glyph unicode="&#xb0;" d="M209 1145q0 130 87 217.5t218 87.5q130 0 215.5 -87t85.5 -218q0 -124 -88 -211.5t-213 -87.5q-126 0 -215.5 87.5t-89.5 211.5zM332 1145q0 -74 53.5 -126t128.5 -52q74 0 126 52t52 126q0 79 -50 129.5t-128 50.5q-79 0 -130.5 -51t-51.5 -129z" />
<glyph unicode="&#xb1;" d="M127 193v131h768v-131h-768zM127 741v131h315v330h140v-330h313v-131h-313v-311h-140v311h-315z" />
<glyph unicode="&#xb2;" horiz-adv-x="682" />
<glyph unicode="&#xb3;" horiz-adv-x="682" />
<glyph unicode="&#xb4;" d="M254 1225l272 104l191 84l53 -156l-479 -133z" />
<glyph unicode="&#xb5;" horiz-adv-x="1180" />
<glyph unicode="&#xb6;" horiz-adv-x="1011" d="M94 1130q0 435 557 435q178 0 299 -27v-45q-49 -33 -149 -94v-1374l-21 -7q-20 -6 -51 -8l-19 19l-10 -9q-6 9 -6 13v1382h-192v-958l49 26v-288q-43 -62 -49 -170l-21 -7q-14 -4 -33 -6q4 156 -39 279q-14 84 -18 219q-4 111 -6 221q-158 94 -211 158q-80 94 -80 241z M614 0l60 -34l-2 36l-9 -6l-20 33z" />
<glyph unicode="&#xb7;" horiz-adv-x="569" />
<glyph unicode="&#xb8;" horiz-adv-x="682" />
<glyph unicode="&#xb9;" horiz-adv-x="682" />
<glyph unicode="&#xba;" horiz-adv-x="748" />
<glyph unicode="&#xbb;" horiz-adv-x="1139" />
<glyph unicode="&#xbc;" horiz-adv-x="1081" d="M94 211v55q127 127 457 449q-185 49 -275 57q-47 4 -180 19v10q49 10 141 47q37 20 45 106l43 33q35 27 93 55v332q-88 41 -138 49v78q21 8 80 29q76 26 103 26q37 0 41 -116v-94q-2 -152 4 -199q12 -113 55 -189l-10 -8v-106q176 -53 348 -164l49 141h-115 q-36 0 -55 -26q-6 -2 -20.5 -13.5t-20.5 -11.5h-14q4 0 8 -4l-2 4l-4 14q-27 21 -64 21q-73 0 -336 -90l236 -90q16 -7 31 -21q8 -45 6 -94l-8 -133q4 -139 143 -170v-39q-86 -51 -166 -160h-22q-4 15 -33 68q-8 12 -23 59q-51 6 -262 39q-94 14 -135 37zM200 1008l265 -359 v119l123 -37l-152 301l-39 -94zM280 250h222v305q-156 -121 -222 -158v-147z" />
<glyph unicode="&#xbd;" horiz-adv-x="968" d="M98 760v39q4 2 199 63q28 33 53 113q6 14 82 41v381q-27 10 -146 45v51q97 72 168 72q23 0 70 -17q-2 -205 8 -528q55 -31 68 -41q24 -23 20 -68v-75q82 -33 191 -33v-4q-101 -21 -121 -27q-62 -18 -117 -47v-107q146 -79 146 -159q0 -78 -152 -176q-39 -25 -193 -127 q173 -58 234 -66q20 -2 106 -16v-51q-129 -13 -260 -13t-262 13v92q56 63 166 135q72 45 281 180q-113 152 -185 152q-108 0 -172 -84q-6 -11 -20 -29h-47q-17 0 -19 6v21q-2 14 -2 39q45 45 121 102l127 96q-201 35 -344 27z" />
<glyph unicode="&#xbe;" d="M18 289l928 559l58 -113l-930 -557zM57 786l107 72q34 -51 75.5 -75.5t94.5 -24.5q56 0 89.5 31.5t33.5 84.5q0 61 -34.5 90t-105.5 29q-17 0 -26.5 -0.5t-15.5 -1.5l-1 113h19q76 0 113.5 24.5t37.5 73.5q0 46 -29.5 72t-80.5 26q-37 0 -73 -20.5t-71 -60.5l-88 73 q49 60 112 88.5t144 28.5q103 0 169.5 -52t66.5 -128q0 -57 -33.5 -100t-101.5 -74q78 -19 116.5 -63t38.5 -113q0 -105 -74.5 -165.5t-203.5 -60.5q-95 0 -164 33t-115 100zM356 -72l289 465h209v-465h133v-112h-133v-129h-131v129h-367v112zM473 -72h250v406z" />
<glyph unicode="&#xbf;" horiz-adv-x="966" d="M71 311q10 13 27 33q10 49 8 82q-2 16 -4 55q-2 49 12 72q8 14 51 53q31 29 72 66q149 135 174 194q16 39 12 115q0 10 -4 51q-2 31 -2 51q0 -12 23 4q32 25 41 29q49 -45 49 -190q0 -80 -8 -160q-299 -270 -299 -373q0 -61 62 -148t214 -87h51l35 12q39 45 51 63 q27 39 39 72q66 45 105 45q22 0 55 -14v-156q-31 -35 -94 -104q-39 -23 -142.5 -48.5t-150.5 -25.5q-94 0 -133 14q-62 23 -154 101q-16 39 -43 65q-6 84 -47 129zM315 1421q0 49 53 93.5t104 44.5q37 0 107 -37v-179q-107 -59 -131 -59q-47 0 -90 45t-43 92z" />
<glyph unicode="&#xc0;" d="M49 0l346 1389h234l346 -1389h-160l-100 412h-414l-98 -412h-154zM252 1632l55 156l189 -84l272 -104l-37 -101zM332 543h354q-63 270 -107.5 462t-70.5 306q-15 -77 -62.5 -284t-113.5 -484z" />
<glyph unicode="&#xc1;" d="M49 0l346 1389h234l346 -1389h-160l-100 412h-414l-98 -412h-154zM254 1600l272 104l191 84l53 -156l-479 -133zM332 543h354q-63 270 -107.5 462t-70.5 306q-15 -77 -62.5 -284t-113.5 -484z" />
<glyph unicode="&#xc2;" horiz-adv-x="1366" />
<glyph unicode="&#xc3;" d="M49 0l346 1389h234l346 -1389h-160l-100 412h-414l-98 -412h-154zM178 1540q22 90 80.5 132t161.5 42q19 0 37 -1.5t37 -4.5l124 -20q3 0 7 -1q25 -3 37 -3q38 0 63 14.5t43 48.5h76q-20 -88 -80.5 -131t-165.5 -43q-9 0 -21 1t-34 3l-122 21q-17 3 -33 4.5t-32 1.5 q-35 0 -59 -15t-43 -49h-76zM332 543h354q-63 270 -107.5 462t-70.5 306q-15 -77 -62.5 -284t-113.5 -484z" />
<glyph unicode="&#xc4;" d="M49 0l346 1389h234l346 -1389h-160l-100 412h-414l-98 -412h-154zM217 1643q0 41 30.5 71.5t71.5 30.5q42 0 71.5 -30t29.5 -72q0 -46 -28.5 -75.5t-72.5 -29.5q-43 0 -72.5 30t-29.5 75zM332 543h354q-63 270 -107.5 462t-70.5 306q-15 -77 -62.5 -284t-113.5 -484z M602 1643q0 41 30.5 71.5t72.5 30.5q41 0 70.5 -30t29.5 -72q0 -46 -28.5 -75.5t-71.5 -29.5q-44 0 -73.5 30t-29.5 75z" />
<glyph unicode="&#xc5;" d="M49 0l346 1389h234l346 -1389h-160l-100 412h-414l-98 -412h-154zM324 1645q0 78 54.5 133t131.5 55q76 0 131 -56t55 -132q0 -79 -54 -133t-132 -54t-132 54t-54 133zM332 543h354q-63 270 -107.5 462t-70.5 306q-15 -77 -62.5 -284t-113.5 -484zM414 1645 q0 -40 27.5 -68.5t66.5 -28.5t66.5 28t27.5 69q0 39 -27 66.5t-67 27.5t-67 -27.5t-27 -66.5z" />
<glyph unicode="&#xc6;" d="M4 0l342 1370h619v-137h-334v-461h260v-131h-260v-504h368v-137h-505v475h-226l-114 -475h-150zM299 608h195v625h-54z" />
<glyph unicode="&#xc7;" d="M119 684q0 351 110 537t318 186q158 0 254.5 -90t111.5 -252l-151 -12q-17 108 -69.5 163.5t-139.5 55.5q-138 0 -206 -145.5t-68 -440.5q0 -306 69 -447t219 -141q86 0 135 45t82 154l129 -35q-30 -147 -120 -224t-232 -77q-219 0 -330.5 182.5t-111.5 540.5zM328 -295 q78 -18 142 -27.5t104 -9.5q50 0 77 20t27 56q0 39 -30 58.5t-91 19.5q-17 0 -30 -0.5t-27 -1.5v180h74v-92h26q103 0 158 -41t55 -117q0 -88 -60 -132t-179 -44q-52 0 -115 10t-131 29v92z" />
<glyph unicode="&#xc8;" d="M205 0v1370h698v-137h-543v-461h396v-131h-396v-504h562v-137h-717zM252 1632l55 156l189 -84l272 -104l-37 -101z" />
<glyph unicode="&#xc9;" d="M205 0v1370h698v-137h-543v-461h396v-131h-396v-504h562v-137h-717zM254 1600l272 104l191 84l53 -156l-479 -133z" />
<glyph unicode="&#xca;" horiz-adv-x="1366" />
<glyph unicode="&#xcb;" d="M205 0v1370h698v-137h-543v-461h396v-131h-396v-504h562v-137h-717zM217 1643q0 41 30.5 71.5t71.5 30.5q42 0 71.5 -30t29.5 -72q0 -46 -28.5 -75.5t-72.5 -29.5q-43 0 -72.5 30t-29.5 75zM602 1643q0 41 30.5 71.5t72.5 30.5q41 0 70.5 -30t29.5 -72q0 -46 -28.5 -75.5 t-71.5 -29.5q-44 0 -73.5 30t-29.5 75z" />
<glyph unicode="&#xcc;" horiz-adv-x="569" />
<glyph unicode="&#xcd;" d="M254 1600l272 104l191 84l53 -156l-479 -133zM258 0v135h176v1100h-176v135h506v-135h-176v-1100h176v-135h-506z" />
<glyph unicode="&#xce;" horiz-adv-x="569" />
<glyph unicode="&#xcf;" horiz-adv-x="569" />
<glyph unicode="&#xd0;" horiz-adv-x="1479" />
<glyph unicode="&#xd1;" d="M139 0v1370h203l346 -852q13 -31 33 -94.5t43 -144.5q-13 268 -20 541t-8 550h149v-1395h-127l-484 1184q2 -317 5.5 -603.5t8.5 -555.5h-149zM178 1540q22 90 80.5 132t161.5 42q19 0 37 -1.5t37 -4.5l124 -20q3 0 7 -1q25 -3 37 -3q38 0 63 14.5t43 48.5h76 q-20 -88 -80.5 -131t-165.5 -43q-9 0 -21 1t-34 3l-122 21q-17 3 -33 4.5t-32 1.5q-35 0 -59 -15t-43 -49h-76z" />
<glyph unicode="&#xd2;" d="M84 684q0 352 110 537.5t318 185.5t318 -185.5t110 -537.5t-110 -537.5t-318 -185.5t-318 185.5t-110 537.5zM244 721q0 -319 65.5 -471t202.5 -152q134 0 201 147.5t67 440.5q0 292 -67 439t-201 147q-130 0 -199 -142.5t-69 -408.5zM252 1632l55 156l189 -84l272 -104 l-37 -101z" />
<glyph unicode="&#xd3;" d="M84 684q0 352 110 537.5t318 185.5t318 -185.5t110 -537.5t-110 -537.5t-318 -185.5t-318 185.5t-110 537.5zM244 721q0 -319 65.5 -471t202.5 -152q134 0 201 147.5t67 440.5q0 292 -67 439t-201 147q-130 0 -199 -142.5t-69 -408.5zM254 1600l272 104l191 84l53 -156 l-479 -133z" />
<glyph unicode="&#xd4;" d="M84 684q0 352 110 537.5t318 185.5t318 -185.5t110 -537.5t-110 -537.5t-318 -185.5t-318 185.5t-110 537.5zM178 1518l213 246h240l213 -246h-146l-188 147l-186 -147h-146zM244 721q0 -319 65.5 -471t202.5 -152q134 0 201 147.5t67 440.5q0 292 -67 439t-201 147 q-130 0 -199 -142.5t-69 -408.5z" />
<glyph unicode="&#xd5;" horiz-adv-x="1593" />
<glyph unicode="&#xd6;" d="M84 684q0 352 110 537.5t318 185.5t318 -185.5t110 -537.5t-110 -537.5t-318 -185.5t-318 185.5t-110 537.5zM217 1643q0 41 30.5 71.5t71.5 30.5q42 0 71.5 -30t29.5 -72q0 -46 -28.5 -75.5t-72.5 -29.5q-43 0 -72.5 30t-29.5 75zM244 721q0 -319 65.5 -471t202.5 -152 q134 0 201 147.5t67 440.5q0 292 -67 439t-201 147q-130 0 -199 -142.5t-69 -408.5zM602 1643q0 41 30.5 71.5t72.5 30.5q41 0 70.5 -30t29.5 -72q0 -46 -28.5 -75.5t-71.5 -29.5q-44 0 -73.5 30t-29.5 75z" />
<glyph unicode="&#xd7;" horiz-adv-x="1196" />
<glyph unicode="&#xd8;" d="M33 27l117 192q-34 101 -50 213t-16 252q0 352 110 537.5t318 185.5q85 0 153.5 -32t131.5 -101l86 141l96 -59l-117 -195q41 -93 59.5 -199.5t18.5 -277.5q0 -352 -110 -537.5t-318 -185.5q-90 0 -161.5 35.5t-135.5 112.5l-90 -148zM244 700q0 -48 5 -125t15 -174 l447 729q-36 73 -84.5 107.5t-114.5 34.5q-133 0 -200.5 -144.5t-67.5 -427.5zM307 254q36 -79 86.5 -117.5t118.5 -38.5q132 0 200 144.5t68 423.5q0 43 -6 115.5t-20 205.5z" />
<glyph unicode="&#xd9;" d="M133 498v872h154v-872q0 -217 54 -309.5t177 -92.5q120 0 173.5 93.5t53.5 308.5v872h146v-952q0 -89 -10 -144t-33 -104q-47 -99 -135 -154t-201 -55q-104 0 -188 46.5t-134 129.5q-30 53 -43.5 132t-13.5 229zM252 1632l55 156l189 -84l272 -104l-37 -101z" />
<glyph unicode="&#xda;" d="M133 498v872h154v-872q0 -217 54 -309.5t177 -92.5q120 0 173.5 93.5t53.5 308.5v872h146v-952q0 -89 -10 -144t-33 -104q-47 -99 -135 -154t-201 -55q-104 0 -188 46.5t-134 129.5q-30 53 -43.5 132t-13.5 229zM254 1600l272 104l191 84l53 -156l-479 -133z" />
<glyph unicode="&#xdb;" d="M133 498v872h154v-872q0 -217 54 -309.5t177 -92.5q120 0 173.5 93.5t53.5 308.5v872h146v-952q0 -89 -10 -144t-33 -104q-47 -99 -135 -154t-201 -55q-104 0 -188 46.5t-134 129.5q-30 53 -43.5 132t-13.5 229zM178 1518l213 246h240l213 -246h-146l-188 147l-186 -147 h-146z" />
<glyph unicode="&#xdc;" d="M133 498v872h154v-872q0 -217 54 -309.5t177 -92.5q120 0 173.5 93.5t53.5 308.5v872h146v-952q0 -89 -10 -144t-33 -104q-47 -99 -135 -154t-201 -55q-104 0 -188 46.5t-134 129.5q-30 53 -43.5 132t-13.5 229zM217 1643q0 41 30.5 71.5t71.5 30.5q42 0 71.5 -30 t29.5 -72q0 -46 -28.5 -75.5t-72.5 -29.5q-43 0 -72.5 30t-29.5 75zM602 1643q0 41 30.5 71.5t72.5 30.5q41 0 70.5 -30t29.5 -72q0 -46 -28.5 -75.5t-71.5 -29.5q-44 0 -73.5 30t-29.5 75z" />
<glyph unicode="&#xdd;" horiz-adv-x="1366" />
<glyph unicode="&#xde;" horiz-adv-x="1366" />
<glyph unicode="&#xdf;" d="M141 0v1006v30q0 92 8 141.5t25 90.5q39 87 119 131.5t196 44.5q167 0 266 -92t99 -246q0 -117 -58.5 -198t-170.5 -120q147 -19 221 -119t74 -278q0 -195 -92.5 -307.5t-249.5 -112.5q-61 0 -111.5 15t-101.5 49l57 121q43 -26 80 -39t71 -13q90 0 138.5 75t48.5 212 q0 158 -72 233.5t-223 75.5h-12v133q110 10 173.5 81.5t63.5 185.5q0 104 -54.5 161.5t-154.5 57.5q-95 0 -142.5 -57.5t-47.5 -174.5v-1087h-150z" />
<glyph unicode="&#xe0;" d="M131 307q0 163 92.5 259t249.5 96q28 0 71 -6.5t115 -20.5q3 22 4 34t1 21q0 103 -51.5 158t-147.5 55q-51 0 -96.5 -17.5t-89.5 -54.5l-56 123q70 42 134 61t130 19q69 0 125.5 -18t98.5 -53q54 -46 76 -105t22 -219v-340q0 -114 24.5 -151.5t88.5 -55.5l-60 -123 q-68 14 -109.5 47t-62.5 90q-44 -62 -110.5 -95.5t-147.5 -33.5q-134 0 -217.5 91.5t-83.5 238.5zM252 1257l55 156l189 -84l272 -104l-37 -101zM287 319q0 -102 51.5 -160.5t142.5 -58.5q89 0 133.5 60.5t44.5 179.5v172q-53 12 -93 18.5t-70 6.5q-98 0 -153.5 -58.5 t-55.5 -159.5z" />
<glyph unicode="&#xe1;" d="M131 307q0 163 92.5 259t249.5 96q28 0 71 -6.5t115 -20.5q3 22 4 34t1 21q0 103 -51.5 158t-147.5 55q-51 0 -96.5 -17.5t-89.5 -54.5l-56 123q70 42 134 61t130 19q69 0 125.5 -18t98.5 -53q54 -46 76 -105t22 -219v-340q0 -114 24.5 -151.5t88.5 -55.5l-60 -123 q-68 14 -109.5 47t-62.5 90q-44 -62 -110.5 -95.5t-147.5 -33.5q-134 0 -217.5 91.5t-83.5 238.5zM254 1225l272 104l191 84l53 -156l-479 -133zM287 319q0 -102 51.5 -160.5t142.5 -58.5q89 0 133.5 60.5t44.5 179.5v172q-53 12 -93 18.5t-70 6.5q-98 0 -153.5 -58.5 t-55.5 -159.5z" />
<glyph unicode="&#xe2;" d="M131 307q0 163 92.5 259t249.5 96q28 0 71 -6.5t115 -20.5q3 22 4 34t1 21q0 103 -51.5 158t-147.5 55q-51 0 -96.5 -17.5t-89.5 -54.5l-56 123q70 42 134 61t130 19q69 0 125.5 -18t98.5 -53q54 -46 76 -105t22 -219v-340q0 -114 24.5 -151.5t88.5 -55.5l-60 -123 q-68 14 -109.5 47t-62.5 90q-44 -62 -110.5 -95.5t-147.5 -33.5q-134 0 -217.5 91.5t-83.5 238.5zM178 1143l213 246h240l213 -246h-146l-188 147l-186 -147h-146zM287 319q0 -102 51.5 -160.5t142.5 -58.5q89 0 133.5 60.5t44.5 179.5v172q-53 12 -93 18.5t-70 6.5 q-98 0 -153.5 -58.5t-55.5 -159.5z" />
<glyph unicode="&#xe3;" d="M131 307q0 163 92.5 259t249.5 96q28 0 71 -6.5t115 -20.5q3 22 4 34t1 21q0 103 -51.5 158t-147.5 55q-51 0 -96.5 -17.5t-89.5 -54.5l-56 123q70 42 134 61t130 19q69 0 125.5 -18t98.5 -53q54 -46 76 -105t22 -219v-340q0 -114 24.5 -151.5t88.5 -55.5l-60 -123 q-68 14 -109.5 47t-62.5 90q-44 -62 -110.5 -95.5t-147.5 -33.5q-134 0 -217.5 91.5t-83.5 238.5zM178 1165q22 90 80.5 132t161.5 42q19 0 37 -1.5t37 -4.5l124 -20q3 0 7 -1q25 -3 37 -3q38 0 63 14.5t43 48.5h76q-20 -88 -80.5 -131t-165.5 -43q-9 0 -21 1t-34 3l-122 21 q-17 3 -33 4.5t-32 1.5q-35 0 -59 -15t-43 -49h-76zM287 319q0 -102 51.5 -160.5t142.5 -58.5q89 0 133.5 60.5t44.5 179.5v172q-53 12 -93 18.5t-70 6.5q-98 0 -153.5 -58.5t-55.5 -159.5z" />
<glyph unicode="&#xe4;" d="M131 307q0 163 92.5 259t249.5 96q28 0 71 -6.5t115 -20.5q3 22 4 34t1 21q0 103 -51.5 158t-147.5 55q-51 0 -96.5 -17.5t-89.5 -54.5l-56 123q70 42 134 61t130 19q69 0 125.5 -18t98.5 -53q54 -46 76 -105t22 -219v-340q0 -114 24.5 -151.5t88.5 -55.5l-60 -123 q-68 14 -109.5 47t-62.5 90q-44 -62 -110.5 -95.5t-147.5 -33.5q-134 0 -217.5 91.5t-83.5 238.5zM217 1268q0 41 30.5 71.5t71.5 30.5q42 0 71.5 -30t29.5 -72q0 -46 -28.5 -75.5t-72.5 -29.5q-43 0 -72.5 30t-29.5 75zM287 319q0 -102 51.5 -160.5t142.5 -58.5 q89 0 133.5 60.5t44.5 179.5v172q-53 12 -93 18.5t-70 6.5q-98 0 -153.5 -58.5t-55.5 -159.5zM602 1268q0 41 30.5 71.5t72.5 30.5q41 0 70.5 -30t29.5 -72q0 -46 -28.5 -75.5t-71.5 -29.5q-44 0 -73.5 30t-29.5 75z" />
<glyph unicode="&#xe5;" d="M131 307q0 163 92.5 259t249.5 96q28 0 71 -6.5t115 -20.5q3 22 4 34t1 21q0 103 -51.5 158t-147.5 55q-51 0 -96.5 -17.5t-89.5 -54.5l-56 123q70 42 134 61t130 19q69 0 125.5 -18t98.5 -53q54 -46 76 -105t22 -219v-340q0 -114 24.5 -151.5t88.5 -55.5l-60 -123 q-68 14 -109.5 47t-62.5 90q-44 -62 -110.5 -95.5t-147.5 -33.5q-134 0 -217.5 91.5t-83.5 238.5zM287 319q0 -102 51.5 -160.5t142.5 -58.5q89 0 133.5 60.5t44.5 179.5v172q-53 12 -93 18.5t-70 6.5q-98 0 -153.5 -58.5t-55.5 -159.5zM348 1268q0 69 49.5 118.5 t118.5 49.5t118.5 -49.5t49.5 -118.5q0 -71 -48.5 -119.5t-119.5 -48.5t-119.5 48.5t-48.5 119.5zM432 1268q0 -36 23.5 -60t58.5 -24q36 0 61 24.5t25 59.5q0 33 -25.5 58.5t-60.5 25.5q-33 0 -57.5 -25t-24.5 -59z" />
<glyph unicode="&#xe6;" d="M8 289q0 153 95 234t274 81q7 0 22.5 -1t22.5 -1v6q4 52 4 72q0 117 -36 174t-109 57q-40 0 -80 -20t-80 -60l-45 123q59 41 114 60.5t109 19.5q62 0 112.5 -23t100.5 -75q43 50 91.5 74t105.5 24q148 0 218 -119.5t70 -375.5v-47h-422v-46q0 -183 42.5 -263.5 t138.5 -80.5q41 0 86.5 22t103.5 71l47 -123q-76 -51 -141 -75t-129 -24q-79 0 -137.5 32t-108.5 101q-31 -64 -86.5 -98.5t-128.5 -34.5q-119 0 -186.5 84t-67.5 232zM139 283q0 -86 39 -133.5t109 -47.5q68 0 101.5 50t33.5 149v191h-31q-127 0 -189.5 -51.5t-62.5 -157.5 zM575 686q0 -12 1 -29t4 -53h270q0 8 1 21.5t1 19.5q0 124 -39.5 195t-105.5 71q-63 0 -97.5 -58.5t-34.5 -166.5z" />
<glyph unicode="&#xe7;" d="M141 492q0 252 122 397t333 145q82 0 148.5 -22.5t113.5 -67.5v-160q0 -18 -4.5 -23t-24.5 -5h-10q-45 0 -51 22t-15 40q-18 39 -63 63t-100 24q-134 0 -213.5 -108t-79.5 -295q0 -194 68 -296t198 -102q71 0 133 33t127 107l84 -101q-73 -89 -154.5 -130.5t-183.5 -41.5 q-204 0 -316 136t-112 385zM336 -295q78 -18 142 -27.5t104 -9.5q50 0 77 20t27 56q0 39 -30 58.5t-91 19.5q-17 0 -30 -0.5t-27 -1.5v180h74v-92h26q103 0 158 -41t55 -117q0 -88 -60 -132t-179 -44q-52 0 -115 10t-131 29v92z" />
<glyph unicode="&#xe8;" horiz-adv-x="1071" d="M67 547q0 186 102 362q121 207 306 207q141 0 190 -18q76 -29 154 -127q2 -4 110 -146v-268h-704v-268q78 -56 176 -131l8 -8q33 -25 74 -23q92 6 241 29q119 18 179 14q14 -10 28 -23v-34q-372 -113 -456 -113q-187 0 -308 201q-100 166 -100 346zM229 700 q96 -38 239 -38q140 0 383 43q-75 98 -85.5 121.5t-30.5 68.5q-54 92 -209 92q-123 0 -174 -49l-74 -45q-49 -31 -49 -82v-111zM272 1411v62q24 20 37 51h149q25 0 170 -64q62 -26 227 -94v-119l5 15l-5 -5l-2 -4q-4 -2 -26 -2q-53 0 -275 68q-182 55 -280 92z" />
<glyph unicode="&#xe9;" horiz-adv-x="1038" d="M53 541q0 200 90 368q113 211 309 211q136 0 187 -18q73 -27 149 -123q23 -29 109 -143v-285h-690v-264l172 -129l8 -6q33 -25 74 -23q92 4 235 27q117 18 174 14q14 -10 27 -20v-33q-365 -111 -445 -111q-182 0 -301 197q-98 164 -98 338zM205 1268v96q47 16 231 92 q149 62 180 62h142q14 -37 38 -113q-436 -152 -542 -152q-21 0 -49 15zM209 690q96 -41 241 -41q140 0 365 43q-51 92 -70 129q-45 90 -92 127q-59 47 -151 47q-121 0 -173 -49q-73 -47 -77 -49q-43 -35 -43 -74v-133z" />
<glyph unicode="&#xea;" d="M119 502q0 242 113 387t300 145q181 0 285.5 -133.5t104.5 -368.5q0 -25 -0.5 -37.5t-2.5 -23.5h-630v-35q0 -164 66 -248t196 -84q58 0 127 21.5t162 69.5l63 -123q-105 -52 -192.5 -76.5t-167.5 -24.5q-205 0 -314.5 137t-109.5 394zM178 1143l213 246h240l213 -246 h-146l-188 147l-186 -147h-146zM293 605l466 -1q-8 142 -69 219.5t-164 77.5t-165.5 -79t-67.5 -217z" />
<glyph unicode="&#xeb;" d="M119 502q0 242 113 387t300 145q181 0 285.5 -133.5t104.5 -368.5q0 -25 -0.5 -37.5t-2.5 -23.5h-630v-35q0 -164 66 -248t196 -84q58 0 127 21.5t162 69.5l63 -123q-105 -52 -192.5 -76.5t-167.5 -24.5q-205 0 -314.5 137t-109.5 394zM217 1268q0 41 30.5 71.5 t71.5 30.5q42 0 71.5 -30t29.5 -72q0 -46 -28.5 -75.5t-72.5 -29.5q-43 0 -72.5 30t-29.5 75zM293 605l466 -1q-8 142 -69 219.5t-164 77.5t-165.5 -79t-67.5 -217zM602 1268q0 41 30.5 71.5t72.5 30.5q41 0 70.5 -30t29.5 -72q0 -46 -28.5 -75.5t-71.5 -29.5 q-44 0 -73.5 30t-29.5 75z" />
<glyph unicode="&#xec;" d="M205 872v134h403v-1006h-149v872h-254zM252 1257l55 156l189 -84l272 -104l-37 -101z" />
<glyph unicode="&#xed;" d="M205 872v134h403v-1006h-149v872h-254zM254 1225l272 104l191 84l53 -156l-479 -133z" />
<glyph unicode="&#xee;" d="M178 1143l213 246h240l213 -246h-146l-188 147l-186 -147h-146zM205 872v134h403v-1006h-149v872h-254z" />
<glyph unicode="&#xef;" d="M205 872v134h403v-1006h-149v872h-254zM217 1268q0 41 30.5 71.5t71.5 30.5q42 0 71.5 -30t29.5 -72q0 -46 -28.5 -75.5t-72.5 -29.5q-43 0 -72.5 30t-29.5 75zM602 1268q0 41 30.5 71.5t72.5 30.5q41 0 70.5 -30t29.5 -72q0 -46 -28.5 -75.5t-71.5 -29.5q-44 0 -73.5 30 t-29.5 75z" />
<glyph unicode="&#xf0;" horiz-adv-x="1139" />
<glyph unicode="&#xf1;" d="M131 1006h148q10 -60 16.5 -102.5t9.5 -77.5q50 93 121 142.5t156 49.5q148 0 215 -91t67 -298v-629h-149v608q0 158 -33 215.5t-111 57.5q-114 0 -184 -137t-70 -367v-377h-149v635q0 86 -9 178t-28 193zM178 1165q22 90 80.5 132t161.5 42q19 0 37 -1.5t37 -4.5 l124 -20q3 0 7 -1q25 -3 37 -3q38 0 63 14.5t43 48.5h76q-20 -88 -80.5 -131t-165.5 -43q-9 0 -21 1t-34 3l-122 21q-17 3 -33 4.5t-32 1.5q-35 0 -59 -15t-43 -49h-76z" />
<glyph unicode="&#xf2;" d="M109 502q0 249 107.5 390.5t295.5 141.5t295.5 -141.5t107.5 -390.5t-107.5 -390t-295.5 -141t-295.5 141t-107.5 390zM252 1257l55 156l189 -84l272 -104l-37 -101zM266 502q0 -187 65.5 -292.5t180.5 -105.5t180.5 105.5t65.5 292.5t-65.5 293t-180.5 106t-180.5 -106 t-65.5 -293z" />
<glyph unicode="&#xf3;" d="M109 502q0 249 107.5 390.5t295.5 141.5t295.5 -141.5t107.5 -390.5t-107.5 -390t-295.5 -141t-295.5 141t-107.5 390zM254 1225l272 104l191 84l53 -156l-479 -133zM266 502q0 -187 65.5 -292.5t180.5 -105.5t180.5 105.5t65.5 292.5t-65.5 293t-180.5 106t-180.5 -106 t-65.5 -293z" />
<glyph unicode="&#xf4;" d="M109 502q0 249 107.5 390.5t295.5 141.5t295.5 -141.5t107.5 -390.5t-107.5 -390t-295.5 -141t-295.5 141t-107.5 390zM178 1143l213 246h240l213 -246h-146l-188 147l-186 -147h-146zM266 502q0 -187 65.5 -292.5t180.5 -105.5t180.5 105.5t65.5 292.5t-65.5 293 t-180.5 106t-180.5 -106t-65.5 -293z" />
<glyph unicode="&#xf5;" d="M109 502q0 249 107.5 390.5t295.5 141.5t295.5 -141.5t107.5 -390.5t-107.5 -390t-295.5 -141t-295.5 141t-107.5 390zM178 1165q22 90 80.5 132t161.5 42q19 0 37 -1.5t37 -4.5l124 -20q3 0 7 -1q25 -3 37 -3q38 0 63 14.5t43 48.5h76q-20 -88 -80.5 -131t-165.5 -43 q-9 0 -21 1t-34 3l-122 21q-17 3 -33 4.5t-32 1.5q-35 0 -59 -15t-43 -49h-76zM266 502q0 -187 65.5 -292.5t180.5 -105.5t180.5 105.5t65.5 292.5t-65.5 293t-180.5 106t-180.5 -106t-65.5 -293z" />
<glyph unicode="&#xf6;" d="M109 502q0 249 107.5 390.5t295.5 141.5t295.5 -141.5t107.5 -390.5t-107.5 -390t-295.5 -141t-295.5 141t-107.5 390zM217 1268q0 41 30.5 71.5t71.5 30.5q42 0 71.5 -30t29.5 -72q0 -46 -28.5 -75.5t-72.5 -29.5q-43 0 -72.5 30t-29.5 75zM266 502q0 -187 65.5 -292.5 t180.5 -105.5t180.5 105.5t65.5 292.5t-65.5 293t-180.5 106t-180.5 -106t-65.5 -293zM602 1268q0 41 30.5 71.5t72.5 30.5q41 0 70.5 -30t29.5 -72q0 -46 -28.5 -75.5t-71.5 -29.5q-44 0 -73.5 30t-29.5 75z" />
<glyph unicode="&#xf7;" horiz-adv-x="1124" />
<glyph unicode="&#xf8;" d="M109 514q0 240 109 380t294 140q63 0 118 -18.5t111 -59.5l72 109l88 -59l-82 -123q50 -82 73 -172.5t23 -208.5q0 -249 -107.5 -390t-295.5 -141q-75 0 -131 20t-107 64l-71 -102l-90 59l88 127q-47 83 -69.5 175t-22.5 200zM266 500q0 -59 7.5 -111.5t23.5 -101.5 l365 549q-41 33 -77 49t-73 16q-116 0 -181 -105.5t-65 -295.5zM354 178q36 -39 73.5 -56.5t84.5 -17.5q115 0 180.5 105.5t65.5 292.5q0 58 -9.5 118t-27.5 119z" />
<glyph unicode="&#xf9;" d="M156 377v629h149v-609q0 -162 32 -217t109 -55q115 0 185.5 137t70.5 367v377h150v-635q0 -86 9 -178.5t28 -192.5h-147q-12 64 -18 104t-9 74q-49 -92 -121 -141t-158 -49q-148 0 -214 90t-66 299zM252 1257l55 156l189 -84l272 -104l-37 -101z" />
<glyph unicode="&#xfa;" d="M156 377v629h149v-609q0 -162 32 -217t109 -55q115 0 185.5 137t70.5 367v377h150v-635q0 -86 9 -178.5t28 -192.5h-147q-12 64 -18 104t-9 74q-49 -92 -121 -141t-158 -49q-148 0 -214 90t-66 299zM254 1225l272 104l191 84l53 -156l-479 -133z" />
<glyph unicode="&#xfb;" d="M156 377v629h149v-609q0 -162 32 -217t109 -55q115 0 185.5 137t70.5 367v377h150v-635q0 -86 9 -178.5t28 -192.5h-147q-12 64 -18 104t-9 74q-49 -92 -121 -141t-158 -49q-148 0 -214 90t-66 299zM178 1143l213 246h240l213 -246h-146l-188 147l-186 -147h-146z" />
<glyph unicode="&#xfc;" d="M156 377v629h149v-609q0 -162 32 -217t109 -55q115 0 185.5 137t70.5 367v377h150v-635q0 -86 9 -178.5t28 -192.5h-147q-12 64 -18 104t-9 74q-49 -92 -121 -141t-158 -49q-148 0 -214 90t-66 299zM217 1268q0 41 30.5 71.5t71.5 30.5q42 0 71.5 -30t29.5 -72 q0 -46 -28.5 -75.5t-72.5 -29.5q-43 0 -72.5 30t-29.5 75zM602 1268q0 41 30.5 71.5t72.5 30.5q41 0 70.5 -30t29.5 -72q0 -46 -28.5 -75.5t-71.5 -29.5q-44 0 -73.5 30t-29.5 75z" />
<glyph unicode="&#xfd;" />
<glyph unicode="&#xfe;" horiz-adv-x="1139" />
<glyph unicode="&#xff;" />
<glyph unicode="&#x152;" horiz-adv-x="2048" />
<glyph unicode="&#x153;" horiz-adv-x="1933" />
<glyph unicode="&#x178;" horiz-adv-x="1366" />
<glyph unicode="&#x2c6;" horiz-adv-x="682" />
<glyph unicode="&#x2dc;" horiz-adv-x="682" />
<glyph unicode="&#x2000;" horiz-adv-x="916" />
<glyph unicode="&#x2001;" horiz-adv-x="1833" />
<glyph unicode="&#x2002;" horiz-adv-x="916" />
<glyph unicode="&#x2003;" horiz-adv-x="1833" />
<glyph unicode="&#x2004;" horiz-adv-x="611" />
<glyph unicode="&#x2005;" horiz-adv-x="458" />
<glyph unicode="&#x2006;" horiz-adv-x="305" />
<glyph unicode="&#x2007;" horiz-adv-x="305" />
<glyph unicode="&#x2008;" horiz-adv-x="229" />
<glyph unicode="&#x2009;" horiz-adv-x="366" />
<glyph unicode="&#x200a;" horiz-adv-x="101" />
<glyph unicode="&#x2010;" horiz-adv-x="1236" d="M16 1001q0 52 48 94t99 42h717q49 0 98.5 -43t49.5 -93q0 -47 -49.5 -90t-98.5 -43h-813q-14 35 -45 105q-6 18 -6 28z" />
<glyph unicode="&#x2011;" horiz-adv-x="1236" d="M16 1001q0 52 48 94t99 42h717q49 0 98.5 -43t49.5 -93q0 -47 -49.5 -90t-98.5 -43h-813q-14 35 -45 105q-6 18 -6 28z" />
<glyph unicode="&#x2012;" horiz-adv-x="1236" d="M16 1001q0 52 48 94t99 42h717q49 0 98.5 -43t49.5 -93q0 -47 -49.5 -90t-98.5 -43h-813q-14 35 -45 105q-6 18 -6 28z" />
<glyph unicode="&#x2013;" horiz-adv-x="1236" d="M16 1001q0 52 48 94t99 42h717q49 0 98.5 -43t49.5 -93q0 -47 -49.5 -90t-98.5 -43h-813q-14 35 -45 105q-6 18 -6 28z" />
<glyph unicode="&#x2014;" horiz-adv-x="1236" d="M16 1001q0 52 48 94t99 42h717q49 0 98.5 -43t49.5 -93q0 -47 -49.5 -90t-98.5 -43h-813q-14 35 -45 105q-6 18 -6 28z" />
<glyph unicode="&#x2018;" horiz-adv-x="548" d="M92 995v523q84 47 123 47q55 0 61 -11q15 -24 64 -75v-463q-29 -21 -88 -58q-23 -10 -37 -10q-29 0 -115 43z" />
<glyph unicode="&#x2019;" horiz-adv-x="548" d="M92 995v523q84 47 123 47q55 0 61 -11q15 -24 64 -75v-463q-29 -21 -88 -58q-23 -10 -37 -10q-29 0 -115 43z" />
<glyph unicode="&#x201a;" horiz-adv-x="455" />
<glyph unicode="&#x201c;" horiz-adv-x="976" d="M53 1487q41 74 100 74q25 0 54 -33q22 -27 45 -53q-39 -95 -39 -248q0 -8 4 -129q2 -62 2 -131q-31 -6 -64 -6q-32 0 -65 6q2 -27 6 280q2 162 -43 240zM450 993v533l13 4q24 8 49 8q45 0 75.5 -27.5t30.5 -72.5q0 -60 -59 -156q59 -33 61 -39q0 -33 -9 -43t-42 -31 l102 -116l82 108l-206 -20l57 -51q14 -13 24 -19l146 -82l-193 273l31 -164q2 -29 -2 -51l-22 -121l43 -54l38 82h-188q-12 23 -31 39z" />
<glyph unicode="&#x201d;" horiz-adv-x="954" d="M30 1487q41 74 100 74q25 0 54 -33q22 -27 45 -53q-39 -95 -39 -248q0 -8 4 -129q2 -62 2 -131q-31 -6 -64 -6q-32 0 -65 6q2 -27 6 280q2 162 -43 240zM427 993v533l13 4q24 8 49 8q45 0 75.5 -27.5t30.5 -72.5q0 -60 -59 -156q59 -33 61 -39q0 -33 -9 -43t-42 -31 l102 -116l82 108l-206 -20l57 -51q14 -13 24 -19l146 -82l-193 273l31 -164q2 -29 -2 -51l-22 -121l43 -54l38 82h-188q-12 23 -31 39z" />
<glyph unicode="&#x201e;" horiz-adv-x="682" />
<glyph unicode="&#x2022;" d="M352 684q0 67 47 114.5t113 47.5t113 -48t47 -114t-47 -113t-113 -47q-67 0 -113.5 46.5t-46.5 113.5z" />
<glyph unicode="&#x2026;" horiz-adv-x="2048" />
<glyph unicode="&#x202f;" horiz-adv-x="366" />
<glyph unicode="&#x2039;" horiz-adv-x="682" />
<glyph unicode="&#x203a;" horiz-adv-x="682" />
<glyph unicode="&#x205f;" horiz-adv-x="458" />
<glyph unicode="&#x20ac;" d="M-14 739l51 115h129q26 273 132 413t286 140q158 0 254.5 -90t111.5 -252l-149 -12q-17 109 -71.5 164t-145.5 55q-113 0 -179 -106t-79 -312h458l-51 -115h-414q0 -6 -1 -28.5t-1 -38.5q0 -1 1 -7q1 -18 1 -36h365l-51 -115h-309q20 -220 87 -318t195 -98 q85 0 133.5 44.5t81.5 154.5l129 -35q-30 -147 -120.5 -224t-231.5 -77q-190 0 -299 139t-135 414h-150l52 115h92q0 11 -1 28t-1 23q0 10 1 30t1 29h-172z" />
<glyph unicode="&#x2122;" d="M98 1270v100h256v-100h-71v-391h-113v391h-72zM430 879v491h131l117 -313l115 313h133v-491h-103v331l-118 -331h-52l-123 331v-331h-100z" />
<glyph unicode="&#x25fc;" horiz-adv-x="1130" d="M0 0v1130h1130v-1130h-1130z" />
</font>
</defs>
</svg>
